<?xml version="1.0" encoding="utf-8"?>
<!-- Generator: Adobe Illustrator 16.0.0, SVG Export Plug-In . SVG Version: 6.00 Build 0)  -->
<!DOCTYPE svg PUBLIC "-//W3C//DTD SVG 1.1//EN" "http://www.w3.org/Graphics/SVG/1.1/DTD/svg11.dtd">
<svg version="1.1" id="Layer_1" xmlns="http://www.w3.org/2000/svg" xmlns:xlink="http://www.w3.org/1999/xlink" x="0px" y="0px"
	 width="69.866px" height="156.207px" viewBox="89.922 47.121 69.866 156.207"
	 enable-background="new 89.922 47.121 69.866 156.207" xml:space="preserve">
<g>
	<path fill="#717171" d="M156.777,64.605l-28.914-16.692c-1.827-1.058-4.193-1.055-6.017-0.001L92.929,64.605
		c-1.854,1.072-3.007,3.069-3.007,5.211v33.391c0,2.144,1.153,4.139,3.01,5.212l28.913,16.692c0.914,0.528,1.956,0.807,3.011,0.807
		c1.054,0,2.095-0.279,3.007-0.807l28.916-16.694c1.855-1.071,3.009-3.066,3.009-5.21V69.816
		C159.787,67.675,158.635,65.678,156.777,64.605z M154.973,103.207c0,0.428-0.229,0.828-0.601,1.043l-28.917,16.693
		c-0.363,0.21-0.837,0.21-1.202-0.001L95.339,104.25c-0.372-0.215-0.603-0.615-0.603-1.043V69.816c0-0.428,0.231-0.827,0.602-1.043
		l28.916-16.692c0.183-0.107,0.391-0.161,0.602-0.161c0.209,0,0.418,0.054,0.603,0.161l28.912,16.692
		c0.374,0.215,0.604,0.615,0.604,1.043L154.973,103.207L154.973,103.207z"/>
	<path fill="#717171" d="M118.261,80.67c2.622,0,4.97-1.168,6.571-3.004c1.6,1.836,3.947,3.004,6.568,3.004
		c4.813,0,8.723-3.913,8.723-8.721c0-1.188-0.963-2.152-2.15-2.152c-1.187,0-2.152,0.964-2.152,2.152
		c0,2.436-1.981,4.417-4.42,4.417c-2.436,0-4.416-1.981-4.416-4.417c0-1.188-0.963-2.152-2.15-2.152
		c-1.19,0-2.154,0.964-2.154,2.152c0,2.436-1.981,4.417-4.418,4.417s-4.417-1.981-4.417-4.417c0-1.188-0.965-2.152-2.153-2.152
		s-2.15,0.964-2.15,2.152C109.542,76.757,113.453,80.67,118.261,80.67z"/>
	<path fill="#717171" d="M138.118,85.232h-26.527c-1.188,0-2.151,0.964-2.151,2.151c0,8.501,6.915,15.416,15.416,15.416
		c8.5,0,15.414-6.915,15.414-15.416C140.27,86.196,139.307,85.232,138.118,85.232z M124.855,98.496
		c-5.392,0-9.897-3.859-10.903-8.96h21.804C134.753,94.637,130.246,98.496,124.855,98.496z"/>
</g>
<g>
	<g>
		<g>
			<path fill="#717171" d="M135.816,196.738h-15.199c-0.397,0-0.721-0.323-0.721-0.723c0-0.396,0.324-0.718,0.721-0.718v-0.002
				h7.938c4.031,0,7.313-3.28,7.313-7.312s-3.281-7.313-7.313-7.313h-15.187v2.473h15.181c2.672,0,4.84,2.17,4.84,4.84
				c0,2.668-2.17,4.839-4.84,4.839h-7.938c-1.76,0-3.191,1.434-3.191,3.192c0,1.762,1.431,3.192,3.191,3.192h15.2L135.816,196.738z"
				/>
		</g>
		<g>
			<path fill="#717171" d="M135.811,200.857H120.61c-2.669,0-4.839-2.174-4.839-4.842s2.17-4.838,4.839-4.838v-0.002h7.938
				c1.763,0,3.192-1.432,3.192-3.191s-1.432-3.191-3.192-3.191H113.37v2.471h15.185c0.397,0,0.723,0.323,0.723,0.721
				c0,0.398-0.324,0.723-0.723,0.723h-7.938c-4.031,0-7.312,3.277-7.312,7.311c0,4.031,3.281,7.313,7.312,7.313h15.199
				L135.811,200.857z"/>
		</g>
		<g>
			<path fill="#717171" d="M153.177,180.555v15.579l0,0c0,0.398-0.323,0.722-0.721,0.722s-0.722-0.322-0.722-0.722h0.002v-8.267
				c0-4.032-3.279-7.313-7.312-7.313s-7.313,3.279-7.313,7.313v15.462h2.474v-15.403l0,0c0-2.669,2.171-4.841,4.841-4.841
				c2.668,0,4.838,2.172,4.838,4.841h0.002v8.268h-0.002c0,1.76,1.434,3.192,3.192,3.192c1.763,0,3.192-1.434,3.192-3.192l0,0
				v-15.641L153.177,180.555z"/>
		</g>
		<g>
			<path fill="#717171" d="M157.296,180.555v15.639h-0.002c0,2.67-2.169,4.842-4.838,4.842c-2.67,0-4.839-2.172-4.839-4.842h0.002
				v-8.268h-0.002c0-1.761-1.432-3.191-3.191-3.191c-1.761,0-3.193,1.432-3.193,3.191h0.002v15.401h2.471v-15.46
				c0-0.399,0.324-0.721,0.723-0.721c0.396,0,0.721,0.32,0.721,0.721v8.268h-0.002c0,4.032,3.278,7.313,7.312,7.313
				s7.313-3.279,7.313-7.313l0,0v-15.58H157.296z"/>
		</g>
		<g>
			<polygon fill="#717171" points="92.411,184.793 89.939,184.793 89.939,187.266 89.939,188.706 89.939,191.18 92.411,191.18 			
				"/>
		</g>
		<g>
			<polygon fill="#717171" points="92.411,192.823 89.939,192.823 89.939,195.299 89.939,196.738 89.939,199.21 92.411,199.21 			
				"/>
		</g>
		<g>
			<path fill="#717171" d="M105.192,180.673H89.939v2.474h2.472h1.647h11.132c2.668,0,4.839,2.172,4.839,4.84
				c0,1.671-0.852,3.145-2.144,4.016c1.292,0.869,2.144,2.348,2.144,4.016c0,2.67-2.173,4.842-4.839,4.842H94.06h-1.648H89.94v2.472
				h15.252c4.031,0,7.311-3.281,7.311-7.313c0-1.48-0.446-2.86-1.208-4.016c0.762-1.152,1.208-2.531,1.208-4.016
				C112.503,183.955,109.223,180.673,105.192,180.673z"/>
		</g>
		<g>
			<path fill="#717171" d="M94.06,199.21h11.132c1.76,0,3.19-1.433,3.19-3.192c0-1.761-1.43-3.193-3.19-3.193H94.06V199.21z
				 M96.532,195.299h8.66c0.396,0,0.72,0.319,0.72,0.719c0,0.398-0.324,0.721-0.72,0.721h-8.66V195.299z"/>
		</g>
		<g>
			<path fill="#717171" d="M108.382,187.986c0-1.762-1.43-3.193-3.19-3.193H94.06v6.387h11.132
				C106.952,191.18,108.382,189.745,108.382,187.986z M96.532,187.266h8.66c0.396,0,0.72,0.322,0.72,0.721
				c0,0.396-0.324,0.721-0.72,0.721h-8.66V187.266z"/>
		</g>
	</g>
</g>
<g>
	<path fill="#717171" d="M120.319,147.173c1.195,0,2.124,0.408,2.785,1.226c0.661,0.815,0.992,1.972,0.992,3.466
		c0,1.493-0.333,2.653-1,3.481c-0.667,0.826-1.592,1.24-2.776,1.24c-0.592,0-1.133-0.109-1.623-0.328
		c-0.489-0.219-0.9-0.555-1.232-1.008h-0.1l-0.291,1.17h-0.988v-12.916h1.378v3.139c0,0.703-0.022,1.334-0.066,1.893h0.066
		C118.106,147.627,119.058,147.173,120.319,147.173z M120.12,148.326c-0.941,0-1.619,0.271-2.034,0.81
		c-0.415,0.54-0.623,1.448-0.623,2.729c0,1.276,0.213,2.192,0.639,2.743c0.426,0.551,1.109,0.824,2.05,0.824
		c0.847,0,1.478-0.308,1.893-0.925c0.415-0.616,0.623-1.504,0.623-2.661c0-1.184-0.208-2.066-0.623-2.646
		C121.63,148.618,120.989,148.326,120.12,148.326z"/>
	<path fill="#717171" d="M125.059,147.322h1.478l1.992,5.188c0.437,1.186,0.707,2.04,0.813,2.565h0.066
		c0.072-0.282,0.223-0.765,0.453-1.448c0.229-0.684,0.979-2.785,2.254-6.305h1.477l-3.908,10.359
		c-0.389,1.022-0.841,1.75-1.356,2.178c-0.519,0.43-1.153,0.645-1.906,0.645c-0.42,0-0.835-0.047-1.245-0.141v-1.104
		c0.304,0.066,0.645,0.101,1.021,0.101c0.945,0,1.621-0.531,2.025-1.594l0.506-1.295L125.059,147.322z"/>
</g>
</svg>
