<?xml version="1.0" encoding="utf-8"?>
<!-- Generator: Adobe Illustrator 21.1.0, SVG Export Plug-In . SVG Version: 6.00 Build 0)  -->
<svg version="1.1" id="Layer_1" xmlns="http://www.w3.org/2000/svg" xmlns:xlink="http://www.w3.org/1999/xlink" x="0px" y="0px"
	 viewBox="0 0 250 250" style="enable-background:new 0 0 250 250;" xml:space="preserve">
<style type="text/css">
	.st0{fill:#FFC421;}
	.st1{fill:none;stroke:#CCCCCC;stroke-width:1.5;stroke-linecap:round;stroke-linejoin:round;stroke-miterlimit:10;}
	.st2{fill:#404041;}
	.st3{fill:#FFFFFF;}
	.st4{fill:none;stroke:#CCCCCC;stroke-width:1.5;stroke-miterlimit:10;}
	.st5{clip-path:url(#SVGID_2_);}
	.st6{fill:none;}
	.st7{fill:none;stroke:#FFC421;stroke-width:1.5;stroke-linecap:round;stroke-linejoin:round;stroke-miterlimit:10;}
	.st8{fill:none;stroke:#CCCCCC;stroke-width:0.5232;stroke-miterlimit:10;}
	.st9{fill:none;stroke:#FFFFFF;stroke-width:3.2;stroke-linecap:round;stroke-linejoin:round;stroke-miterlimit:10;}
	.st10{fill:none;stroke:#FFFFFF;stroke-width:3;stroke-linecap:round;stroke-linejoin:round;stroke-miterlimit:10;}
</style>
<rect x="0.7" y="-0.2" class="st0" width="251" height="251"/>
<g>
	<g>
		<g>
			<path class="st3" d="M146.5,152.3c-0.3,0-0.6-0.2-0.7-0.4c-1.3-2.7-4.8-4.5-8.9-4.5c-4,0-7.6,1.8-8.9,4.5c-0.2,0.4-0.6,0.5-1,0.4
				s-0.5-0.6-0.4-1c1.5-3.2,5.6-5.4,10.2-5.4c4.6,0,8.7,2.2,10.2,5.4c0.2,0.4,0,0.8-0.4,1C146.7,152.2,146.6,152.3,146.5,152.3z"/>
		</g>
		<g>
			<g>
				<path class="st3" d="M159.3,161.5H147c-0.4,0-0.7-0.3-0.7-0.6c-0.1-0.4,0.2-0.7,0.5-0.8c0,0,1.2-0.4,1.6-1.3
					c0.3-0.6,0.2-1.2-0.1-2l-7.4-14.3c-0.1-0.2-0.1-0.5,0-0.7c0.1-0.2,0.4-0.4,0.6-0.4h4.5c0.3,0,0.5,0.1,0.6,0.4l9.4,15.6
					c0.8,1.1,2.3,2.7,3.2,2.7c0.4,0,0.8,0.3,0.8,0.8S159.8,161.5,159.3,161.5z M149.4,160h7.1c-0.8-0.8-1.4-1.6-1.6-1.9l-9.2-15.2
					h-2.9l6.9,13.2c0,0,0,0,0,0.1c0.5,1.2,0.6,2.3,0.1,3.3C149.7,159.6,149.5,159.8,149.4,160z"/>
			</g>
		</g>
		<g>
			<g>
				<path class="st3" d="M126.7,161.5h-12.3c-0.4,0-0.8-0.3-0.8-0.8s0.3-0.8,0.8-0.8c0.9,0,2.5-1.6,3.3-2.8l9.4-15.5
					c0.1-0.2,0.4-0.4,0.6-0.4h4.5c0.3,0,0.5,0.1,0.6,0.4c0.1,0.2,0.1,0.5,0,0.7l-7.4,14.3c-0.3,0.8-0.4,1.5-0.1,2.1
					c0.4,0.9,1.6,1.3,1.6,1.3c0.4,0.1,0.6,0.5,0.5,0.8C127.4,161.2,127.1,161.5,126.7,161.5z M117.3,160h7.1
					c-0.1-0.2-0.3-0.4-0.4-0.6c-0.5-1-0.4-2.1,0.1-3.3c0,0,0,0,0,0l6.9-13.2h-2.9l-9.2,15.2C118.7,158.3,118.1,159.2,117.3,160z"/>
			</g>
		</g>
	</g>
	<g>
		<path class="st3" d="M149.6,142.5h-25.7c-0.4,0-0.8-0.3-0.8-0.8V137c0-0.4,0.3-0.8,0.8-0.8h25.7c0.4,0,0.8,0.3,0.8,0.8v4.8
			C150.4,142.2,150,142.5,149.6,142.5z M124.7,141h24.2v-3.3h-24.2V141z"/>
	</g>
	<g>
		<path class="st3" d="M131.8,142.2h-4.9c-0.3,0-0.5-0.1-0.6-0.4s-0.1-0.5,0-0.8c2.2-3.8,4.8-13.5,4.9-13.6c0.1-0.3,0.4-0.6,0.7-0.6
			h2.9c0.4,0,0.7,0.3,0.8,0.7c0,3.1-2.8,13.5-3,14C132.5,142,132.2,142.2,131.8,142.2z M128.2,140.7h3.1c0.5-2,2.4-9.2,2.7-12.2
			h-1.6C131.9,130.4,130,136.9,128.2,140.7z"/>
	</g>
	<g>
		<path class="st3" d="M141.3,128.5h-9.6c-0.4,0-0.7-0.2-0.7-0.6l-0.7-3.1c0-0.1,0-0.3,0-0.4l0.7-1.9c0.1-0.3,0.4-0.5,0.7-0.5h9.7
			c0.3,0,0.6,0.2,0.7,0.5l0.8,1.9c0.1,0.2,0.1,0.3,0,0.5l-0.8,3.1C141.9,128.3,141.6,128.5,141.3,128.5z M132.3,127h8.5l0.6-2.3
			l-0.5-1.2h-8.7l-0.4,1.2L132.3,127z"/>
	</g>
	<g>
		<path class="st3" d="M140.8,123.5h-8.5c-0.2,0-0.4-0.1-0.6-0.3c-0.1-0.2-0.2-0.4-0.2-0.6c0-0.1,1.6-8.4,1.9-11.7l0.5-15.1
			c0-0.4,0.3-0.7,0.8-0.7h2.6c0.4,0,0.7,0.3,0.7,0.7c0.3,4.7,0.8,13.8,1,15c0.7,5,1.7,10.6,2.2,11.4c0.2,0.2,0.3,0.5,0.2,0.8
			C141.4,123.3,141.1,123.5,140.8,123.5z M141.2,122.2C141.2,122.2,141.2,122.2,141.2,122.2C141.2,122.2,141.2,122.2,141.2,122.2z
			 M133.2,122h6.4c-0.4-1.4-1.1-4.4-2-10.9c-0.2-1.4-0.8-11.7-1-14.5h-1.2L135,111C134.7,113.9,133.6,119.8,133.2,122z"/>
	</g>
	<g>
		<path class="st3" d="M137.4,96.6c-0.1,0-0.2,0-0.3-0.1c-0.4-0.2-0.6-0.6-0.4-1l0.5-1.3l-0.5-0.9h-1.1l-0.5,0.9l0.4,1.4
			c0.1,0.4-0.1,0.8-0.5,0.9c-0.4,0.1-0.8-0.1-0.9-0.5l-0.5-1.7c-0.1-0.2,0-0.4,0.1-0.6l1-1.5c0.1-0.2,0.4-0.3,0.6-0.3h1.9
			c0.3,0,0.5,0.1,0.7,0.4l0.9,1.6c0.1,0.2,0.1,0.4,0,0.6l-0.6,1.6C138,96.5,137.7,96.6,137.4,96.6z"/>
	</g>
	<g>
		<path class="st3" d="M136.1,93.4c-0.4,0-0.8-0.3-0.8-0.8v-4.2c0-0.4,0.3-0.8,0.8-0.8s0.8,0.3,0.8,0.8v4.2
			C136.9,93.1,136.5,93.4,136.1,93.4z"/>
	</g>
	<g>
		<path class="st3" d="M146.6,142.2h-4.9c-0.3,0-0.6-0.2-0.7-0.5c-0.1-0.4-3-10.9-3-14c0-0.4,0.3-0.7,0.8-0.7h2.9
			c0.3,0,0.6,0.2,0.7,0.6c0,0.1,2.7,9.8,4.9,13.6c0.1,0.2,0.1,0.5,0,0.8S146.9,142.2,146.6,142.2z M142.3,140.7h3.1
			c-1.8-3.8-3.7-10.3-4.3-12.2h-1.6C139.8,131.6,141.7,138.7,142.3,140.7z"/>
	</g>
</g>
<g>
	<g>
		<path class="st2" d="M220.5,174.4c-0.8,0-1.5-0.7-1.5-1.5V71.8c0-1.3-1.1-2.4-2.4-2.4H55.9c-1.3,0-2.4,1.1-2.4,2.4v101.1
			c0,0.8-0.7,1.5-1.5,1.5s-1.5-0.7-1.5-1.5V71.8c0-3,2.4-5.4,5.4-5.4h160.7c3,0,5.4,2.4,5.4,5.4v101.1
			C222,173.7,221.3,174.4,220.5,174.4z"/>
	</g>
	<g>
		<path class="st2" d="M223.4,184.9H49.1c-3,0-5.4-2.4-5.4-5.4v-8.1h185.1v8.1C228.8,182.5,226.4,184.9,223.4,184.9z M46.7,174.4
			v5.1c0,1.3,1.1,2.4,2.4,2.4h174.4c1.3,0,2.4-1.1,2.4-2.4v-5.1H46.7z"/>
	</g>
	<g>
		<path class="st2" d="M220.5,79.3H52.1c-0.4,0-0.8-0.3-0.8-0.8s0.3-0.8,0.8-0.8h168.4c0.4,0,0.8,0.3,0.8,0.8S220.9,79.3,220.5,79.3
			z"/>
	</g>
	<g>
		<path class="st2" d="M147.8,178.9h-23.4c-2.6,0-4.6-2.1-4.6-4.6v-1.5c0-0.4,0.3-0.8,0.8-0.8s0.8,0.3,0.8,0.8v1.5
			c0,1.7,1.4,3.1,3.1,3.1h23.4c1.7,0,3.1-1.4,3.1-3.1v-1.5c0-0.4,0.3-0.8,0.8-0.8s0.8,0.3,0.8,0.8v1.5
			C152.4,176.8,150.3,178.9,147.8,178.9z"/>
	</g>
	<g>
		<path class="st2" d="M74.2,108h-9V92.1h9V108z M66.7,106.5h6V93.6h-6V106.5z"/>
	</g>
	<g>
		<path class="st2" d="M74.2,122.6h-9v-15.9h9V122.6z M66.7,121.1h6v-12.9h-6V121.1z"/>
	</g>
	<g>
		<path class="st2" d="M74.2,136.9h-9V121h9V136.9z M66.7,135.4h6v-12.9h-6V135.4z"/>
	</g>
	<g>
		<rect x="82.7" y="161.4" class="st2" width="109.5" height="1.5"/>
	</g>
	<g>
		<g>
			<g>
				<path class="st2" d="M196.8,118.6l-13-7.5v-15l13-7.5l13,7.5v15L196.8,118.6z M185.3,110.2l11.5,6.6l11.5-6.6V97l-11.5-6.6
					L185.3,97V110.2z"/>
			</g>
		</g>
		<g>
			<rect x="196" y="89.5" class="st2" width="1.5" height="28.2"/>
		</g>
		<g>
			
				<rect x="182.7" y="102.8" transform="matrix(0.866 -0.5001 0.5001 0.866 -25.4262 112.2933)" class="st2" width="28.2" height="1.5"/>
		</g>
		<g>
			<rect x="196" y="89.5" transform="matrix(0.5 -0.866 0.866 0.5 8.6853 222.2162)" class="st2" width="1.5" height="28.2"/>
		</g>
	</g>
</g>
</svg>
