<?xml version="1.0" encoding="utf-8"?>
<!-- Generator: Adobe Illustrator 21.1.0, SVG Export Plug-In . SVG Version: 6.00 Build 0)  -->
<svg version="1.1" id="Layer_1" xmlns="http://www.w3.org/2000/svg" xmlns:xlink="http://www.w3.org/1999/xlink" x="0px" y="0px"
	 viewBox="0 0 250 250" style="enable-background:new 0 0 250 250;" xml:space="preserve">
<style type="text/css">
	.st0{fill:#FFC421;}
	.st1{fill:none;stroke:#CCCCCC;stroke-width:1.5;stroke-linecap:round;stroke-linejoin:round;stroke-miterlimit:10;}
	.st2{fill:#404041;}
	.st3{fill:#FFFFFF;}
	.st4{fill:none;stroke:#CCCCCC;stroke-width:1.5;stroke-miterlimit:10;}
	.st5{clip-path:url(#SVGID_2_);}
	.st6{fill:none;}
	.st7{fill:none;stroke:#FFC421;stroke-width:1.5;stroke-linecap:round;stroke-linejoin:round;stroke-miterlimit:10;}
	.st8{fill:none;stroke:#CCCCCC;stroke-width:0.5232;stroke-miterlimit:10;}
	.st9{fill:none;stroke:#FFFFFF;stroke-width:3.2;stroke-linecap:round;stroke-linejoin:round;stroke-miterlimit:10;}
	.st10{fill:none;stroke:#FFFFFF;stroke-width:3;stroke-linecap:round;stroke-linejoin:round;stroke-miterlimit:10;}
</style>
<rect x="0.3" y="1.3" class="st0" width="251" height="251"/>
<g>
	<g>
		<path class="st3" d="M139.8,138.9h-37.4v-7.7h37.4V138.9z M103.9,137.4h34.4v-4.7h-34.4V137.4z"/>
	</g>
	<g>
		<path class="st3" d="M136.4,154.7c-2.2-4.8-8.5-8-15.6-8c-7.1,0-13.3,3.2-15.6,8l-1.4-0.6c2.5-5.3,9.3-8.8,16.9-8.8
			c7.7,0,14.5,3.5,16.9,8.8L136.4,154.7z"/>
	</g>
	<g>
		<g>
			<path class="st3" d="M159,170.8H138c-0.4,0-0.7-0.3-0.7-0.6c-0.1-0.4,0.2-0.7,0.5-0.8c0,0,2.2-0.7,3.1-2.4
				c0.5-1.1,0.4-2.4-0.2-3.9L128,138.7c-0.1-0.2-0.1-0.5,0-0.7c0.1-0.2,0.4-0.4,0.6-0.4h7.7c0.3,0,0.5,0.1,0.6,0.4l16,26.4
				c0.9,1.3,3.9,4.9,5.9,4.9c0.4,0,0.8,0.3,0.8,0.8S159.4,170.8,159,170.8z M140.9,169.3h14.7c-1.9-1.5-3.5-3.7-3.8-4.1L136,139.1
				h-6.1l12.1,23.2c0,0,0,0,0,0.1c0.8,2,0.9,3.7,0.2,5.2C141.9,168.2,141.4,168.8,140.9,169.3z"/>
		</g>
	</g>
	<g>
		<g>
			<path class="st3" d="M103.5,170.8H82.6c-0.4,0-0.8-0.3-0.8-0.8s0.3-0.8,0.8-0.8c2.1,0,5.1-3.7,6-5l16-26.4
				c0.1-0.2,0.4-0.4,0.6-0.4h7.7c0.3,0,0.5,0.1,0.6,0.4c0.1,0.2,0.1,0.5,0,0.7l-12.6,24.3c-0.7,1.5-0.7,2.9-0.2,3.9
				c0.9,1.8,3,2.4,3,2.4c0.4,0.1,0.6,0.5,0.5,0.8C104.2,170.5,103.9,170.8,103.5,170.8z M86,169.3h14.7c-0.5-0.5-1-1-1.4-1.8
				c-0.7-1.5-0.7-3.2,0.2-5.2c0,0,0,0,0,0l12.1-23.2h-6.1l-15.8,26.1C89.5,165.5,88,167.7,86,169.3z"/>
		</g>
	</g>
</g>
<g>
	<g>
		<path class="st3" d="M120.8,119.4v2.2c0,0.6-0.5,1-1,1c-0.6,0-1-0.5-1-1v-2.2"/>
	</g>
</g>
<g>
	<g>
		<path class="st2" d="M170.8,185.3H71.6c-2.8,0-5-2.3-5-5V70.8c0-2.8,2.3-5,5-5h99.2c2.8,0,5,2.3,5,5v109.5
			C175.8,183.1,173.6,185.3,170.8,185.3z M71.6,68.7c-1.1,0-2,0.9-2,2v109.5c0,1.1,0.9,2,2,2h99.2c1.1,0,2-0.9,2-2V70.8
			c0-1.1-0.9-2-2-2H71.6z"/>
	</g>
	<g>
		<path class="st2" d="M174.3,79.5H68c-0.8,0-1.5-0.7-1.5-1.5s0.7-1.5,1.5-1.5h106.3c0.8,0,1.5,0.7,1.5,1.5S175.2,79.5,174.3,79.5z"
			/>
	</g>
	<g>
		<path class="st2" d="M174.3,174H68c-0.8,0-1.5-0.7-1.5-1.5s0.7-1.5,1.5-1.5h106.3c0.8,0,1.5,0.7,1.5,1.5S175.2,174,174.3,174z"/>
	</g>
	<g>
		<path class="st2" d="M125.8,120.2h-12v-13.7h12V120.2z M115.3,118.7h9V108h-9V118.7z"/>
	</g>
	<g>
		<path class="st2" d="M125,108c-0.2,0-0.5-0.1-0.6-0.3c-0.2-0.3-0.2-0.8,0.2-1l20.7-15.2c0.3-0.2,0.8-0.2,1,0.2
			c0.2,0.3,0.2,0.8-0.2,1l-20.7,15.2C125.3,107.9,125.2,108,125,108z"/>
	</g>
	<g>
		<path class="st2" d="M138.9,97.7c-0.4,0-0.8-0.3-0.8-0.8V78.8c0-0.4,0.3-0.8,0.8-0.8s0.8,0.3,0.8,0.8V97
			C139.7,97.4,139.4,97.7,138.9,97.7z"/>
	</g>
	<g>
		<path class="st2" d="M145.7,92.8c-0.1,0-0.1,0-0.2,0c-0.4-0.1-0.6-0.5-0.5-0.9l4-14c0.1-0.4,0.5-0.6,0.9-0.5
			c0.4,0.1,0.6,0.5,0.5,0.9l-4,14C146.4,92.5,146.1,92.8,145.7,92.8z"/>
	</g>
</g>
</svg>
