<?xml version="1.0" encoding="utf-8"?>
<!-- Generator: Adobe Illustrator 21.1.0, SVG Export Plug-In . SVG Version: 6.00 Build 0)  -->
<svg version="1.1" id="Layer_1" xmlns="http://www.w3.org/2000/svg" xmlns:xlink="http://www.w3.org/1999/xlink" x="0px" y="0px"
	 viewBox="0 0 250 250" style="enable-background:new 0 0 250 250;" xml:space="preserve">
<style type="text/css">
	.st0{fill:#FFC421;}
	.st1{fill:none;stroke:#CCCCCC;stroke-width:1.5;stroke-linecap:round;stroke-linejoin:round;stroke-miterlimit:10;}
	.st2{fill:#404041;}
	.st3{fill:#FFFFFF;}
	.st4{fill:none;stroke:#CCCCCC;stroke-width:1.5;stroke-miterlimit:10;}
	.st5{clip-path:url(#SVGID_2_);}
	.st6{fill:none;}
	.st7{fill:none;stroke:#FFC421;stroke-width:1.5;stroke-linecap:round;stroke-linejoin:round;stroke-miterlimit:10;}
	.st8{fill:none;stroke:#CCCCCC;stroke-width:0.5232;stroke-miterlimit:10;}
	.st9{fill:none;stroke:#FFFFFF;stroke-width:3.2;stroke-linecap:round;stroke-linejoin:round;stroke-miterlimit:10;}
	.st10{fill:none;stroke:#FFFFFF;stroke-width:3;stroke-linecap:round;stroke-linejoin:round;stroke-miterlimit:10;}
</style>
<rect x="0.5" y="0.3" class="st0" width="249.1" height="251"/>
<g>
	<path class="st2" d="M135.9,183.9H84c-6.8,0-10.9-3.4-13-10.6l-15.5-48.6L70.9,77c2.2-7.1,6.3-10.6,12.7-10.6h47.6
		c6.1,0,11,4.9,11,11l4.7,95.4C147,178.9,142,183.9,135.9,183.9z M58.6,124.7l15.2,47.7c1.7,6,4.8,8.5,10.2,8.5h52c4.4,0,8-3.6,8-8
		l-4.7-95.3c0-4.5-3.6-8.1-8-8.1H83.6c-5,0-8,2.6-9.8,8.5L58.6,124.7z"/>
</g>
<g>
	<path class="st2" d="M132.2,183.1c-0.4,0-0.7-0.3-0.7-0.7l-4.7-91.1c0-4.9-3.9-8.8-8.8-8.8H72.4c-0.4,0-0.8-0.3-0.8-0.8
		s0.3-0.8,0.8-0.8H118c5.7,0,10.3,4.6,10.3,10.3l4.7,91.1C133,182.8,132.7,183.1,132.2,183.1C132.3,183.1,132.3,183.1,132.2,183.1z"
		/>
</g>
<g>
	<path class="st2" d="M101.3,156.3H88.4c-1.7,0-5.2,0-6.6-4.1l-5.1-16l5.2-15.8c1.7-4,4.7-4,6.5-4h10.8c2.5,0,4.5,2,4.6,4.5
		l2.1,30.8C105.9,154.2,103.9,156.3,101.3,156.3z M79.9,136.2l4.8,15.1c0.6,1.9,1.8,2,3.7,2h12.9c0.9,0,1.6-0.7,1.6-1.5l-2.1-30.8
		c0-0.9-0.7-1.6-1.6-1.6H88.4c-1.6,0-2.8,0-3.7,2.1L79.9,136.2z"/>
</g>
<path class="st6" d="M149.8,77c-13.3,0-24.1,10.8-24.1,24.1c0,13.3,10.8,24.1,24.1,24.1c8.6,0,16.2-4.5,20.4-11.4l-8.8-5.4
	c-2.4,3.9-6.8,6.5-11.7,6.5c-7.6,0-13.8-6.2-13.8-13.8c0-7.6,6.2-13.8,13.8-13.8c4.7,0,8.9,2.4,11.4,6l8.8-5.4
	C165.6,81.3,158.2,77,149.8,77z"/>
<path class="st6" d="M149.8,65.9c-19.4,0-35.1,15.8-35.1,35.1s15.8,35.1,35.1,35.1c12.6,0,23.6-6.6,29.8-16.6l-8.8-5.4
	c-4.4,7-12.2,11.7-21.1,11.7c-13.7,0-24.8-11.1-24.8-24.8c0-13.7,11.1-24.8,24.8-24.8c8.7,0,16.3,4.5,20.8,11.2l8.8-5.4
	C173,72.3,162.2,65.9,149.8,65.9z"/>
<path class="st6" d="M149.8,88c-7.2,0-13,5.8-13,13c0,7.2,5.8,13,13,13c4.7,0,8.7-2.5,11-6.1l-11.7-7.2l11.4-7
	C158.2,90.2,154.2,88,149.8,88z"/>
<path class="st6" d="M149.8,54.8c-25.5,0-46.2,20.7-46.2,46.2c0,25.5,20.7,46.2,46.2,46.2c16.5,0,31.1-8.7,39.2-21.8l-8.8-5.4
	c-6.3,10.2-17.6,17-30.5,17c-19.8,0-35.9-16.1-35.9-35.9s16.1-35.9,35.9-35.9c12.6,0,23.7,6.6,30.1,16.4l8.8-5.4
	C180.5,63.4,166.1,54.8,149.8,54.8z"/>
<path class="st3" d="M198.2,129.4l-7.8-4.8c4-6.9,6.3-14.9,6.3-23.5c0-8.8-2.4-17-6.6-24l8.1-5c0.7-0.4,0.9-1.4,0.5-2.1
	c-0.4-0.7-1.4-0.9-2.1-0.5l-48.3,29.9c-0.4,0.3-0.7,0.8-0.7,1.3s0.3,1,0.7,1.3l48.3,29.9c0.2,0.2,0.5,0.2,0.8,0.2
	c0.5,0,1-0.3,1.3-0.7C199.1,130.7,198.9,129.8,198.2,129.4z M196,101c0,8.4-2.3,16.3-6.2,23.1l-8.8-5.4c3-5.2,4.7-11.2,4.7-17.6
	c0-6.6-1.8-12.8-5-18.2l8.8-5.4C193.6,84.4,196,92.4,196,101z M174.6,101c0-4.5-1.2-8.7-3.3-12.3l8.7-5.4c3.1,5.2,4.9,11.3,4.9,17.8
	c0,6.3-1.7,12.1-4.6,17.3l-8.8-5.4C173.5,109.3,174.6,105.3,174.6,101z M171,112.5l-8.8-5.5c0.9-1.8,1.4-3.8,1.4-6
	c0-2.4-0.6-4.6-1.7-6.5l8.8-5.4c2,3.5,3.2,7.6,3.2,12C173.9,105.2,172.8,109.1,171,112.5z M161.3,94.9c1,1.8,1.5,3.9,1.5,6.1
	c0,2-0.5,3.9-1.3,5.6l-9.6-5.9L161.3,94.9z"/>
</svg>
