<?xml version="1.0" encoding="utf-8"?>
<!-- Generator: Adobe Illustrator 21.1.0, SVG Export Plug-In . SVG Version: 6.00 Build 0)  -->
<svg version="1.1" id="Layer_1" xmlns="http://www.w3.org/2000/svg" xmlns:xlink="http://www.w3.org/1999/xlink" x="0px" y="0px"
	 viewBox="0 0 250 250" style="enable-background:new 0 0 250 250;" xml:space="preserve">
<style type="text/css">
	.st0{fill:none;stroke:#CCCCCC;stroke-width:1.5;stroke-linecap:round;stroke-linejoin:round;stroke-miterlimit:10;}
	.st1{fill:#CCCCCC;}
	.st2{fill:#FFC421;}
	.st3{fill:none;stroke:#CCCCCC;stroke-width:1.5;stroke-miterlimit:10;}
	.st4{clip-path:url(#SVGID_2_);}
	.st5{fill:#FFFFFF;}
	.st6{clip-path:url(#SVGID_4_);}
	.st7{fill:none;stroke:#FFC421;stroke-width:0.75;stroke-linecap:round;stroke-linejoin:round;stroke-miterlimit:10;}
	.st8{fill:none;stroke:#FFC421;stroke-width:1.5;stroke-linecap:round;stroke-linejoin:round;stroke-miterlimit:10;}
	.st9{fill:none;stroke:#CCCCCC;stroke-width:0.5232;stroke-miterlimit:10;}
	.st10{fill:#B2B2B2;}
	.st11{fill:#FFC420;}
	.st12{fill:none;stroke:#FFFFFF;stroke-width:3.2;stroke-linecap:round;stroke-linejoin:round;stroke-miterlimit:10;}
	.st13{fill:none;stroke:#FFFFFF;stroke-width:3;stroke-linecap:round;stroke-linejoin:round;stroke-miterlimit:10;}
</style>
<g>
	<g>
		<path class="st1" d="M124.8,67.9c0.6,0,1.2,0.1,1.7,0.4l47.9,26.9c0,0,0,0,0,0c0.2,0.1,0.3,0.2,0.5,0.3c0.1,0.1,0.2,0.1,0.3,0.2
			c0.1,0.1,0.2,0.2,0.3,0.3c0.1,0.1,0.2,0.3,0.3,0.4c0,0,0,0,0,0c0.1,0.1,0.1,0.2,0.1,0.4c0.1,0.2,0.1,0.3,0.2,0.5
			c0,0.2,0.1,0.4,0.1,0.6c0,0.1,0,0.2,0,0.3V152c0,1.3-0.7,2.4-1.8,3l-47.9,26.9c-0.1,0.1-0.3,0.1-0.4,0.2c-0.1,0.1-0.3,0.1-0.4,0.2
			c-0.3,0.1-0.6,0.1-0.9,0.1c-0.3,0-0.6,0-0.9-0.1c-0.2,0-0.3-0.1-0.4-0.2c-0.1-0.1-0.3-0.1-0.4-0.2L75.2,155
			c-1.1-0.6-1.8-1.8-1.8-3V98.3c0-0.1,0-0.2,0-0.3c0-0.2,0-0.4,0.1-0.6c0-0.2,0.1-0.3,0.2-0.5c0.1-0.1,0.1-0.2,0.1-0.4c0,0,0,0,0,0
			c0.1-0.1,0.2-0.3,0.3-0.4c0.1-0.1,0.2-0.2,0.2-0.3c0.1-0.1,0.2-0.1,0.3-0.2c0.1-0.1,0.3-0.2,0.4-0.3c0,0,0,0,0,0l47.9-26.9
			C123.6,68.1,124.2,67.9,124.8,67.9 M124.8,64.9c-1.1,0-2.2,0.3-3.2,0.8L73.8,92.6l0,0c-0.1,0-0.1,0.1-0.2,0.1
			c-0.3,0.2-0.5,0.4-0.6,0.5l0,0c-0.1,0.1-0.3,0.2-0.5,0.4c-0.2,0.2-0.4,0.5-0.5,0.6l0,0c-0.1,0.1-0.3,0.3-0.4,0.6
			c0,0-0.1,0.1-0.1,0.1l0,0c-0.2,0.3-0.3,0.6-0.3,0.7l0,0c-0.1,0.2-0.2,0.4-0.3,0.8c-0.1,0.4-0.1,0.7-0.2,1l0,0
			c0,0.2-0.1,0.4-0.1,0.7V152c0,2.3,1.3,4.5,3.3,5.6l47.9,26.9c0.3,0.2,0.6,0.3,0.7,0.3l0,0c0.2,0.1,0.4,0.2,0.8,0.3
			c0.5,0.1,1.1,0.2,1.6,0.2c0.5,0,1.1-0.1,1.6-0.2c0.4-0.1,0.6-0.2,0.8-0.3l0,0c0.2-0.1,0.4-0.2,0.7-0.3l47.9-26.9
			c2-1.1,3.3-3.3,3.3-5.6V98.3c0-0.3,0-0.6-0.1-0.7l0,0c0-0.2,0-0.6-0.2-1c-0.1-0.4-0.2-0.6-0.3-0.8l0,0c-0.1-0.2-0.2-0.4-0.3-0.7
			c0-0.1-0.1-0.1-0.1-0.2c0,0,0,0,0,0c-0.2-0.2-0.3-0.4-0.4-0.5l0,0c-0.1-0.1-0.2-0.4-0.5-0.6c-0.2-0.2-0.4-0.4-0.5-0.5l0,0
			c-0.2-0.1-0.4-0.3-0.7-0.5c-0.1,0-0.1-0.1-0.2-0.1l0,0L128,65.8C127,65.2,125.9,64.9,124.8,64.9L124.8,64.9z"/>
	</g>
</g>
<g>
	<g>
		<path class="st1" d="M139.5,144c0,0,0.1,0,0.1,0.1c0,0.1,0,0.1,0,0.1L124.9,169c0,0,0,0.1-0.1,0.1c-0.1,0-0.1,0-0.1-0.1
			l-14.7-24.8c0,0,0-0.1,0-0.1c0-0.1,0.1-0.1,0.1-0.1H139.5 M139.5,142.5h-29.5c-1.3,0-2,1.4-1.4,2.5l14.7,24.8
			c0.3,0.5,0.9,0.8,1.4,0.8c0.5,0,1.1-0.3,1.4-0.8l14.7-24.8C141.6,143.8,140.8,142.5,139.5,142.5L139.5,142.5z"/>
	</g>
	<g>
		<path class="st1" d="M116,103.2c0,0,0.1,0,0.1,0.1c0,0.1,0,0.1,0,0.1l-14.8,25.7c0,0,0,0.1-0.1,0.1c-0.1,0-0.1,0-0.1-0.1
			l-15.3-25.7c0,0,0-0.1,0-0.1c0-0.1,0.1-0.1,0.1-0.1H116 M116,101.7H85.9c-1.3,0-2,1.4-1.4,2.5l15.3,25.7c0.3,0.5,0.9,0.8,1.4,0.8
			c0.5,0,1.1-0.3,1.4-0.8l14.8-25.7C118,103.1,117.2,101.7,116,101.7L116,101.7z"/>
	</g>
	<g>
		<path class="st1" d="M124.8,108.3c0.1,0,0.1,0,0.1,0.1l14.7,25.5c0,0,0,0.1,0,0.1c0,0.1-0.1,0.1-0.1,0.1h-29.4c0,0-0.1,0-0.1-0.1
			c0-0.1,0-0.1,0-0.1l14.7-25.4C124.7,108.4,124.7,108.3,124.8,108.3 M124.8,106.8c-0.5,0-1.1,0.3-1.4,0.8l-14.7,25.4
			c-0.6,1.1,0.2,2.4,1.4,2.4h29.4c1.3,0,2-1.4,1.4-2.4l-14.7-25.4C125.9,107.1,125.3,106.8,124.8,106.8L124.8,106.8z"/>
	</g>
	<g>
		<path class="st1" d="M163.7,103.2c0,0,0.1,0,0.1,0.1c0,0.1,0,0.1,0,0.1l-15.3,25.7c0,0,0,0.1-0.1,0.1c-0.1,0-0.1,0-0.1-0.1
			l-14.8-25.7c0,0,0-0.1,0-0.1c0-0.1,0.1-0.1,0.1-0.1H163.7 M163.7,101.7h-30.1c-1.3,0-2,1.4-1.4,2.4l14.8,25.7
			c0.3,0.5,0.9,0.8,1.4,0.8c0.5,0,1.1-0.3,1.4-0.8l15.3-25.7C165.7,103.1,165,101.7,163.7,101.7L163.7,101.7z"/>
	</g>
	<g>
		<path class="st1" d="M124.8,77.1C124.8,77.1,124.8,77.1,124.8,77.1l28.5,16c0,0,0.1,0,0.1,0.1c0,0.1-0.1,0.1-0.1,0.1H96.4
			c-0.1,0-0.1,0-0.1-0.1c0-0.1,0-0.1,0.1-0.1L124.8,77.1C124.7,77.1,124.8,77.1,124.8,77.1 M124.8,75.6c-0.3,0-0.5,0.1-0.8,0.2
			L95.6,91.8c-1.5,0.8-0.9,3,0.8,3h56.8c1.7,0,2.3-2.2,0.8-3l-28.4-15.9C125.3,75.7,125.1,75.6,124.8,75.6L124.8,75.6z"/>
	</g>
	<g>
		<path class="st1" d="M82,116.7C82.1,116.7,82.1,116.7,82,116.7l28.8,48.4c0,0.1,0,0.1,0,0.1c0,0.1-0.1,0.1-0.1,0.1c0,0,0,0-0.1,0
			L82,149.1c0,0-0.1-0.1-0.1-0.1v-32.2C81.9,116.8,81.9,116.7,82,116.7 M82,115.2c-0.8,0-1.6,0.6-1.6,1.6V149c0,0.6,0.3,1.1,0.8,1.4
			l28.7,16.1c0.3,0.2,0.5,0.2,0.8,0.2c1.2,0,2.1-1.3,1.4-2.5L83.4,116C83.1,115.4,82.6,115.2,82,115.2L82,115.2z"/>
	</g>
	<g>
		<path class="st1" d="M167.5,116.7c0.1,0,0.1,0.1,0.1,0.1V149c0,0,0,0.1-0.1,0.1l-28.7,16.1c0,0-0.1,0-0.1,0c0,0-0.1,0-0.1-0.1
			c0,0,0,0,0-0.1L167.5,116.7C167.5,116.7,167.5,116.7,167.5,116.7 M167.5,115.2c-0.5,0-1.1,0.2-1.4,0.8l-28.7,48.3
			c-0.7,1.2,0.2,2.5,1.4,2.5c0.3,0,0.5-0.1,0.8-0.2l28.7-16.1c0.5-0.3,0.8-0.8,0.8-1.4v-32.2C169.2,115.8,168.4,115.2,167.5,115.2
			L167.5,115.2z"/>
	</g>
</g>
<g>
	<defs>
		<path id="SVGID_1_" d="M182.9,95.9c-3.6,0-3.6,2.1-7.3,2.1c-3.6,0-3.6-2.1-7.3-2.1c-3.6,0-3.6,2.1-7.3,2.1c-3.6,0-3.6-2.1-7.2-2.1
			c-3.6,0-3.6,2.1-7.2,2.1c-3.6,0-3.6-2.1-7.2-2.1c-3.6,0-3.6,2.1-7.2,2.1c-3.6,0-3.6-2.1-7.2-2.1c-3.6,0-3.6,2.1-7.2,2.1
			c-3.6,0-3.6-2.1-7.2-2.1c-3.6,0-3.6,2.1-7.2,2.1c-3.6,0-3.6-2.1-7.2-2.1c-3.6,0-3.6,2.1-7.2,2.1c-3.6,0-3.6-2.1-7.2-2.1
			c-3.6,0-3.6,2.1-7.2,2.1c-3.6,0-3.6-2.1-7.2-2.1v85.4h116V95.9z"/>
	</defs>
	<clipPath id="SVGID_2_">
		<use xlink:href="#SVGID_1_"  style="overflow:visible;"/>
	</clipPath>
	<g class="st4">
		<g>
			<path class="st2" d="M124.8,181.8c-0.3,0-0.5,0-0.8-0.1c-0.1,0-0.2-0.1-0.2-0.1l-0.1-0.1l-0.2-0.1c-0.1,0-0.1,0-0.2-0.1
				l-47.9-26.9c-0.9-0.5-1.5-1.5-1.5-2.6V98.3c0,0,0-0.1,0-0.1c0-0.1,0-0.1,0-0.2l0-0.1c0-0.1,0-0.2,0-0.4c0-0.1,0.1-0.2,0.1-0.2
				l0.1-0.1c0-0.1,0-0.1,0.1-0.2c0,0,0-0.1,0.1-0.1c0.1-0.1,0.1-0.2,0.2-0.2l0.1-0.1l0.1-0.1c0,0,0.1-0.1,0.1-0.1
				c0,0,0.1-0.1,0.1-0.1c0,0,0.2-0.2,0.2-0.2c0.1-0.1,0.2-0.2,0.3-0.2l0.1,0l47.8-26.8c0.4-0.2,0.9-0.4,1.5-0.4c0.5,0,1,0.1,1.5,0.4
				l47.9,26.9c0.1,0.1,0.2,0.2,0.3,0.2l0.1,0.1c0,0,0.1,0.1,0.1,0.1c0,0,0.1,0,0.1,0.1c0,0,0.1,0.1,0.1,0.1l0.1,0.1l0.1,0.1
				c0.1,0.1,0.1,0.1,0.2,0.2c0,0.1,0.1,0.1,0.1,0.2c0,0.1,0,0.1,0.1,0.2l0.1,0.1c0,0.1,0.1,0.2,0.1,0.3c0,0.1,0,0.2,0,0.4l0,0.1
				c0,0.1,0,0.1,0,0.2c0,0,0,0.1,0,0.1V152c0,1.1-0.6,2.1-1.5,2.6l-47.9,26.9c-0.1,0-0.1,0-0.2,0.1l-0.2,0.1l-0.1,0.1
				c-0.1,0-0.1,0.1-0.2,0.1C125.3,181.8,125,181.8,124.8,181.8z M110.1,142c-0.8,0-1.5,0.4-1.8,1.1c-0.4,0.7-0.4,1.5,0,2.1L123,170
				c0.4,0.7,1.1,1,1.8,1c0.8,0,1.4-0.4,1.8-1l14.7-24.8c0.4-0.7,0.4-1.5,0-2.1c-0.4-0.7-1.1-1.1-1.8-1.1H110.1z M167.5,114.7
				c-0.8,0-1.4,0.4-1.8,1L137,164c-0.4,0.7-0.4,1.5,0,2.1c0.4,0.7,1.1,1.1,1.9,1.1c0.4,0,0.7-0.1,1-0.3l28.7-16.1
				c0.7-0.4,1.1-1.1,1.1-1.9v-32.2C169.7,115.5,168.6,114.7,167.5,114.7z M82,114.7c-1.1,0-2.1,0.8-2.1,2.1V149
				c0,0.8,0.4,1.5,1.1,1.9l28.7,16.1c0.3,0.2,0.7,0.3,1,0.3c0.8,0,1.5-0.4,1.9-1.1c0.4-0.7,0.4-1.5,0-2.1l-28.7-48.3
				C83.5,115.1,82.8,114.7,82,114.7z M124.8,106.3c-0.8,0-1.5,0.4-1.8,1.1l-14.7,25.4c-0.4,0.7-0.4,1.5,0,2.1s1.1,1.1,1.8,1.1h29.4
				c0.8,0,1.5-0.4,1.8-1.1c0.4-0.7,0.4-1.5,0-2.1l-14.7-25.4C126.2,106.7,125.6,106.3,124.8,106.3z M133.6,101.2
				c-0.8,0-1.5,0.4-1.8,1.1c-0.4,0.7-0.4,1.5,0,2.1l14.8,25.7c0.4,0.7,1.1,1.1,1.8,1.1c0.8,0,1.4-0.4,1.8-1l15.3-25.7
				c0.4-0.7,0.4-1.5,0-2.1c-0.4-0.7-1.1-1.1-1.8-1.1H133.6z M85.9,101.2c-0.8,0-1.5,0.4-1.8,1.1c-0.4,0.7-0.4,1.5,0,2.1l15.3,25.7
				c0.4,0.7,1.1,1,1.8,1c0.8,0,1.5-0.4,1.8-1.1l14.8-25.7c0.4-0.7,0.4-1.5,0-2.1c-0.4-0.7-1.1-1.1-1.8-1.1H85.9z"/>
		</g>
		<g>
			<path class="st5" d="M124.8,68.9c0.4,0,0.8,0.1,1.2,0.3l47.8,26.8l0,0l0.1,0.1c0.1,0,0.1,0.1,0.2,0.2l0.1,0.1
				c0.1,0,0.1,0.1,0.2,0.1l0,0c0,0,0,0.1,0.1,0.1c0,0.1,0.1,0.1,0.1,0.2l0.1,0.1c0,0,0.1,0.1,0.1,0.2l0,0c0,0,0,0,0,0.1
				c0,0.1,0,0.1,0.1,0.2l0.1,0.1c0,0.1,0.1,0.1,0.1,0.2c0,0.1,0,0.2,0,0.3l0,0.1c0,0.1,0,0.1,0,0.2l0,0V152c0,0.9-0.5,1.7-1.3,2.2
				L126,181c0,0-0.1,0-0.1,0c-0.1,0-0.1,0-0.2,0.1c-0.1,0-0.1,0-0.2,0.1c0,0-0.1,0-0.1,0.1c-0.2,0.1-0.4,0.1-0.6,0.1
				c-0.2,0-0.4,0-0.6-0.1c-0.1,0-0.1,0-0.1-0.1c-0.1,0-0.1,0-0.2-0.1c-0.1,0-0.1,0-0.2-0.1c0,0-0.1,0-0.1,0l-47.9-26.9
				c-0.8-0.4-1.3-1.3-1.3-2.2l0-53.7l0-0.1c0-0.1,0-0.1,0-0.2l0-0.1c0-0.1,0-0.2,0-0.3c0-0.1,0-0.1,0.1-0.2l0.1-0.1
				c0-0.1,0.1-0.1,0.1-0.2c0,0,0,0,0-0.1l0,0c0-0.1,0.1-0.1,0.1-0.2l0.1-0.1c0-0.1,0.1-0.1,0.1-0.2c0,0,0-0.1,0-0.1l0.1,0
				c0.1,0,0.1-0.1,0.2-0.1l0.1-0.1c0.1-0.1,0.2-0.1,0.2-0.2l0.1-0.1l0,0l47.8-26.8C123.9,69,124.4,68.9,124.8,68.9 M148.4,131.7
				c0.9,0,1.8-0.5,2.3-1.3l15.3-25.7c0.5-0.8,0.5-1.8,0-2.6c-0.5-0.8-1.3-1.3-2.3-1.3h-30.1c-0.9,0-1.8,0.5-2.3,1.3
				c-0.5,0.8-0.5,1.8,0,2.6l14.8,25.7C146.6,131.2,147.5,131.7,148.4,131.7 M101.1,131.7c0.9,0,1.8-0.5,2.3-1.3l14.8-25.7
				c0.5-0.8,0.5-1.8,0-2.6c-0.5-0.8-1.3-1.3-2.3-1.3H85.9c-1,0-1.8,0.5-2.3,1.3c-0.5,0.8-0.5,1.8,0,2.6l15.3,25.7
				C99.4,131.2,100.2,131.7,101.1,131.7 M110.1,136.5h29.4c0.9,0,1.8-0.5,2.3-1.3c0.5-0.8,0.5-1.8,0-2.6l-14.7-25.4
				c-0.5-0.8-1.3-1.3-2.3-1.3c-0.9,0-1.8,0.5-2.3,1.3l-14.7,25.4c-0.5,0.8-0.5,1.8,0,2.6C108.3,136,109.1,136.5,110.1,136.5
				 M138.9,167.8c0.4,0,0.9-0.1,1.3-0.3l28.7-16.1c0.8-0.5,1.3-1.3,1.3-2.3v-32.2c0-0.8-0.3-1.4-0.8-1.9c-0.5-0.4-1.1-0.7-1.8-0.7
				c0,0,0,0,0,0c-0.9,0-1.8,0.5-2.2,1.3l-28.7,48.3c-0.5,0.8-0.5,1.8,0,2.6C137,167.2,137.9,167.8,138.9,167.8 M110.7,167.8
				c0.9,0,1.8-0.5,2.3-1.4c0.5-0.8,0.5-1.8,0-2.6l-28.7-48.3c-0.5-0.8-1.3-1.3-2.2-1.3c-1.3,0-2.6,1-2.6,2.6V149
				c0,0.9,0.5,1.8,1.3,2.3l28.7,16.1C109.8,167.6,110.3,167.8,110.7,167.8 M124.8,171.5c0.9,0,1.8-0.5,2.3-1.3l14.7-24.8
				c0.5-0.8,0.5-1.8,0-2.6c-0.5-0.8-1.3-1.3-2.3-1.3h-29.5c-1,0-1.8,0.5-2.3,1.3c-0.5,0.8-0.5,1.8,0,2.6l14.7,24.8
				C123,171,123.9,171.5,124.8,171.5 M124.8,67.9c-0.6,0-1.2,0.1-1.7,0.4L75.2,95.2c0,0,0,0,0,0c-0.2,0.1-0.3,0.2-0.4,0.3
				c-0.1,0.1-0.2,0.1-0.3,0.2c-0.1,0.1-0.2,0.2-0.2,0.3c-0.1,0.1-0.2,0.3-0.3,0.4c0,0,0,0,0,0c-0.1,0.1-0.1,0.2-0.1,0.4
				c-0.1,0.2-0.1,0.3-0.2,0.5c0,0.2-0.1,0.4-0.1,0.6c0,0.1,0,0.2,0,0.3V152c0,1.3,0.7,2.4,1.8,3l47.9,26.9c0.1,0.1,0.3,0.1,0.4,0.2
				c0.1,0.1,0.3,0.1,0.4,0.2c0.3,0.1,0.6,0.1,0.9,0.1c0.3,0,0.6,0,0.9-0.1c0.2,0,0.3-0.1,0.4-0.2c0.1-0.1,0.3-0.1,0.4-0.2l47.9-26.9
				c1.1-0.6,1.8-1.8,1.8-3V98.3c0-0.1,0-0.2,0-0.3c0-0.2,0-0.4-0.1-0.6c0-0.2-0.1-0.3-0.2-0.5c-0.1-0.1-0.1-0.2-0.1-0.4c0,0,0,0,0,0
				c-0.1-0.1-0.2-0.3-0.3-0.4c-0.1-0.1-0.2-0.2-0.3-0.3c-0.1-0.1-0.2-0.1-0.3-0.2c-0.1-0.1-0.3-0.2-0.5-0.3c0,0,0,0,0,0l-47.9-26.9
				C126,68.1,125.4,67.9,124.8,67.9L124.8,67.9z M148.4,130.7c-0.5,0-1.1-0.3-1.4-0.8l-14.8-25.7c-0.6-1.1,0.2-2.4,1.4-2.4h30.1
				c1.3,0,2,1.4,1.4,2.5l-15.3,25.7C149.5,130.4,149,130.7,148.4,130.7L148.4,130.7z M101.1,130.7c-0.5,0-1.1-0.3-1.4-0.8
				l-15.3-25.7c-0.6-1.1,0.1-2.5,1.4-2.5H116c1.3,0,2,1.4,1.4,2.4l-14.8,25.7C102.2,130.4,101.7,130.7,101.1,130.7L101.1,130.7z
				 M110.1,135.5c-1.3,0-2-1.4-1.4-2.4l14.7-25.4c0.3-0.5,0.9-0.8,1.4-0.8c0.5,0,1.1,0.3,1.4,0.8l14.7,25.4c0.6,1.1-0.2,2.4-1.4,2.4
				H110.1L110.1,135.5z M138.9,166.8c-1.2,0-2.1-1.3-1.4-2.5l28.7-48.3c0.3-0.6,0.9-0.8,1.4-0.8c0.8,0,1.6,0.6,1.6,1.6V149
				c0,0.6-0.3,1.1-0.8,1.4l-28.7,16.1C139.4,166.7,139.1,166.8,138.9,166.8L138.9,166.8z M110.7,166.8c-0.3,0-0.5-0.1-0.8-0.2
				l-28.7-16.1c-0.5-0.3-0.8-0.8-0.8-1.4v-32.2c0-1,0.8-1.6,1.6-1.6c0.5,0,1.1,0.2,1.4,0.8l28.7,48.3
				C112.8,165.5,111.9,166.8,110.7,166.8L110.7,166.8z M124.8,170.5c-0.5,0-1.1-0.3-1.4-0.8l-14.7-24.8c-0.6-1.1,0.1-2.5,1.4-2.5
				h29.5c1.3,0,2,1.4,1.4,2.5l-14.7,24.8C125.9,170.3,125.3,170.5,124.8,170.5L124.8,170.5z"/>
		</g>
	</g>
</g>
</svg>
