<?xml version="1.0" encoding="utf-8"?>
<!-- Generator: Adobe Illustrator 21.1.0, SVG Export Plug-In . SVG Version: 6.00 Build 0)  -->
<svg version="1.1" id="Layer_1" xmlns="http://www.w3.org/2000/svg" xmlns:xlink="http://www.w3.org/1999/xlink" x="0px" y="0px"
	 viewBox="0 0 250 250" style="enable-background:new 0 0 250 250;" xml:space="preserve">
<style type="text/css">
	.st0{fill:#FFC421;}
	.st1{fill:none;stroke:#CCCCCC;stroke-width:1.5;stroke-linecap:round;stroke-linejoin:round;stroke-miterlimit:10;}
	.st2{fill:#404041;}
	.st3{fill:#FFFFFF;}
	.st4{fill:none;stroke:#CCCCCC;stroke-width:1.5;stroke-miterlimit:10;}
	.st5{clip-path:url(#SVGID_2_);}
	.st6{fill:none;}
	.st7{fill:none;stroke:#FFC421;stroke-width:1.5;stroke-linecap:round;stroke-linejoin:round;stroke-miterlimit:10;}
	.st8{fill:none;stroke:#CCCCCC;stroke-width:0.5232;stroke-miterlimit:10;}
	.st9{fill:none;stroke:#FFFFFF;stroke-width:3.2;stroke-linecap:round;stroke-linejoin:round;stroke-miterlimit:10;}
	.st10{fill:none;stroke:#FFFFFF;stroke-width:3;stroke-linecap:round;stroke-linejoin:round;stroke-miterlimit:10;}
</style>
<rect x="-1" class="st0" width="251" height="251"/>
<g>
	<g>
		<g>
			<g>
				<path class="st2" d="M147.1,113.9c-0.1,0-0.3,0-0.4-0.1l-21.4-12c-0.2-0.1-0.4-0.4-0.4-0.7V77c0-0.3,0.1-0.5,0.4-0.7l21.4-12
					c0.2-0.1,0.5-0.1,0.7,0l21.4,12c0.2,0.1,0.4,0.4,0.4,0.7v24.1c0,0.3-0.1,0.5-0.4,0.7l-21.4,12
					C147.4,113.9,147.2,113.9,147.1,113.9z M126.4,100.7l20.7,11.6l20.7-11.6V77.5l-20.7-11.6l-20.7,11.6V100.7z M168.6,101.1
					L168.6,101.1L168.6,101.1z"/>
			</g>
		</g>
		<g>
			<g>
				<path class="st2" d="M104.2,113.9c-0.1,0-0.3,0-0.4-0.1l-21.4-12c-0.2-0.1-0.4-0.4-0.4-0.7V77c0-0.3,0.1-0.5,0.4-0.7l21.4-12
					c0.2-0.1,0.5-0.1,0.7,0l21.4,12c0.2,0.1,0.4,0.4,0.4,0.7v24.1c0,0.3-0.1,0.5-0.4,0.7l-21.4,12
					C104.5,113.9,104.3,113.9,104.2,113.9z M83.5,100.7l20.7,11.6l20.7-11.6V77.5l-20.7-11.6L83.5,77.5V100.7z M125.7,101.1
					L125.7,101.1L125.7,101.1z"/>
			</g>
		</g>
		<g>
			<g>
				<path class="st2" d="M82.8,149.9c-0.1,0-0.3,0-0.4-0.1l-21.4-12c-0.2-0.1-0.4-0.4-0.4-0.7v-24.1c0-0.3,0.1-0.5,0.4-0.7l21.4-12
					c0.2-0.1,0.5-0.1,0.7,0l21.4,12c0.2,0.1,0.4,0.4,0.4,0.7v24.1c0,0.3-0.1,0.5-0.4,0.7l-21.4,12C83,149.9,82.9,149.9,82.8,149.9z
					 M62.1,136.7l20.7,11.6l20.7-11.6v-23.2l-20.7-11.6l-20.7,11.6V136.7z M104.2,137.2L104.2,137.2L104.2,137.2z"/>
			</g>
		</g>
		<g>
			<g>
				<path class="st2" d="M104.2,186c-0.1,0-0.3,0-0.4-0.1l-21.4-12c-0.2-0.1-0.4-0.4-0.4-0.7v-24.1c0-0.3,0.1-0.5,0.4-0.7l21.4-12
					c0.2-0.1,0.5-0.1,0.7,0l21.4,12c0.2,0.1,0.4,0.4,0.4,0.7v24.1c0,0.3-0.1,0.5-0.4,0.7l-21.4,12C104.5,185.9,104.3,186,104.2,186z
					 M83.5,172.7l20.7,11.6l20.7-11.6v-23.2l-20.7-11.6l-20.7,11.6V172.7z M125.7,173.2L125.7,173.2L125.7,173.2z"/>
			</g>
		</g>
		<g>
			<g>
				<path class="st2" d="M147.1,186c-0.1,0-0.3,0-0.4-0.1l-21.4-12c-0.2-0.1-0.4-0.4-0.4-0.7v-24.1c0-0.3,0.1-0.5,0.4-0.7l21.4-12
					c0.2-0.1,0.5-0.1,0.7,0l21.4,12c0.2,0.1,0.4,0.4,0.4,0.7v24.1c0,0.3-0.1,0.5-0.4,0.7l-21.4,12C147.4,185.9,147.2,186,147.1,186z
					 M126.4,172.7l20.7,11.6l20.7-11.6v-23.2l-20.7-11.6l-20.7,11.6V172.7z M168.6,173.2L168.6,173.2L168.6,173.2z"/>
			</g>
		</g>
		<g>
			<g>
				<path class="st2" d="M168.6,149.9c-0.1,0-0.3,0-0.4-0.1l-21.4-12c-0.2-0.1-0.4-0.4-0.4-0.7v-24.1c0-0.3,0.1-0.5,0.4-0.7l21.4-12
					c0.2-0.1,0.5-0.1,0.7,0l21.4,12c0.2,0.1,0.4,0.4,0.4,0.7v24.1c0,0.3-0.1,0.5-0.4,0.7l-21.4,12
					C168.8,149.9,168.7,149.9,168.6,149.9z M147.9,136.7l20.7,11.6l20.7-11.6v-23.2l-20.7-11.6l-20.7,11.6V136.7z M190,137.2
					L190,137.2L190,137.2z"/>
			</g>
		</g>
		<g>
			<path class="st2" d="M82.8,102.1c-0.3,0-0.5-0.1-0.7-0.4c-0.2-0.4-0.1-0.8,0.3-1l42.9-24c0.4-0.2,0.8-0.1,1,0.3
				c0.2,0.4,0.1,0.8-0.3,1l-42.9,24C83,102.1,82.9,102.1,82.8,102.1z"/>
		</g>
		<g>
			<path class="st2" d="M168.6,102.1c-0.1,0-0.2,0-0.4-0.1l-42.9-24c-0.4-0.2-0.5-0.7-0.3-1c0.2-0.4,0.7-0.5,1-0.3l42.9,24
				c0.4,0.2,0.5,0.7,0.3,1C169.1,102,168.8,102.1,168.6,102.1z"/>
		</g>
		<g>
			<path class="st2" d="M82.8,150.2c-0.4,0-0.8-0.3-0.8-0.8v-48c0-0.4,0.3-0.8,0.8-0.8s0.8,0.3,0.8,0.8v48
				C83.5,149.8,83.2,150.2,82.8,150.2z"/>
		</g>
		<g>
			<path class="st2" d="M168.6,150.2c-0.4,0-0.8-0.3-0.8-0.8v-48c0-0.4,0.3-0.8,0.8-0.8s0.8,0.3,0.8,0.8v48
				C169.3,149.8,169,150.2,168.6,150.2z"/>
		</g>
		<g>
			<path class="st2" d="M125.7,174.2c-0.1,0-0.2,0-0.4-0.1l-42.9-24c-0.4-0.2-0.5-0.7-0.3-1c0.2-0.4,0.7-0.5,1-0.3l42.9,24
				c0.4,0.2,0.5,0.7,0.3,1C126.2,174.1,125.9,174.2,125.7,174.2z"/>
		</g>
		<g>
			<path class="st2" d="M125.7,174.2c-0.3,0-0.5-0.1-0.7-0.4c-0.2-0.4-0.1-0.8,0.3-1l42.9-24c0.4-0.2,0.8-0.1,1,0.3
				c0.2,0.4,0.1,0.8-0.3,1l-42.9,24C125.9,174.2,125.8,174.2,125.7,174.2z"/>
		</g>
	</g>
	<g>
		<path class="st2" d="M147.1,186.7c-0.3,0-0.5-0.1-0.7-0.2l-20.7-11.6L105,186.5c-0.5,0.3-1,0.3-1.5,0l-21.4-12
			c-0.5-0.3-0.8-0.8-0.8-1.3v-23.1l-20.7-11.6c-0.5-0.3-0.8-0.8-0.8-1.3v-24.1c0-0.5,0.3-1,0.8-1.3l20.7-11.6V77
			c0-0.5,0.3-1,0.8-1.3l21.4-12c0.5-0.3,1-0.3,1.5,0l20.7,11.6l20.7-11.6c0.5-0.3,1-0.3,1.5,0l21.4,12c0.5,0.3,0.8,0.8,0.8,1.3v23.1
			l20.7,11.6c0.5,0.3,0.8,0.8,0.8,1.3v24.1c0,0.5-0.3,1-0.8,1.3l-20.7,11.6v23.1c0,0.5-0.3,1-0.8,1.3l-21.4,12
			C147.6,186.7,147.4,186.7,147.1,186.7z M125.7,171.7c0.3,0,0.5,0.1,0.7,0.2l20.7,11.6l19.9-11.2v-23.1c0-0.5,0.3-1,0.8-1.3
			l20.7-11.6V114l-20.7-11.6c-0.5-0.3-0.8-0.8-0.8-1.3V77.9l-19.9-11.2l-20.7,11.6c-0.5,0.3-1,0.3-1.5,0l-20.7-11.6L84.3,77.9V101
			c0,0.5-0.3,1-0.8,1.3L62.8,114v22.3l20.7,11.6c0.5,0.3,0.8,0.8,0.8,1.3v23.1l19.9,11.2l20.7-11.6
			C125.2,171.7,125.4,171.7,125.7,171.7z"/>
	</g>
</g>
<g>
	<g>
		<path class="st3" d="M125.7,150.7c-0.3,0-0.5-0.1-0.7-0.2l-21.4-12c-0.5-0.3-0.8-0.8-0.8-1.3v-24.1c0-0.5,0.3-1,0.8-1.3l21.4-12
			c0.5-0.3,1-0.3,1.5,0l21.4,12c0.5,0.3,0.8,0.8,0.8,1.3v24.1c0,0.5-0.3,1-0.8,1.3l-21.4,12C126.2,150.6,125.9,150.7,125.7,150.7z
			 M105.7,136.3l19.9,11.2l19.9-11.2V114l-19.9-11.2L105.7,114V136.3z M147.1,137.2L147.1,137.2L147.1,137.2z"/>
	</g>
	<g>
		<path class="st3" d="M125.7,150.7c-0.8,0-1.5-0.7-1.5-1.5v-24.1c0-0.8,0.7-1.5,1.5-1.5s1.5,0.7,1.5,1.5v24.1
			C127.2,150,126.5,150.7,125.7,150.7z"/>
	</g>
	<g>
		<path class="st3" d="M125.7,126.6c-0.2,0-0.5-0.1-0.7-0.2l-21.4-12c-0.7-0.4-1-1.3-0.6-2s1.3-1,2-0.6l21.4,12c0.7,0.4,1,1.3,0.6,2
			C126.7,126.3,126.2,126.6,125.7,126.6z"/>
	</g>
	<g>
		<path class="st3" d="M125.7,126.6c-0.5,0-1-0.3-1.3-0.8c-0.4-0.7-0.1-1.6,0.6-2l21.4-12c0.7-0.4,1.6-0.1,2,0.6
			c0.4,0.7,0.1,1.6-0.6,2l-21.4,12C126.2,126.6,125.9,126.6,125.7,126.6z"/>
	</g>
</g>
</svg>
