<?xml version="1.0" encoding="utf-8"?>
<!-- Generator: Adobe Illustrator 21.1.0, SVG Export Plug-In . SVG Version: 6.00 Build 0)  -->
<svg version="1.1" id="Layer_1" xmlns="http://www.w3.org/2000/svg" xmlns:xlink="http://www.w3.org/1999/xlink" x="0px" y="0px"
	 viewBox="0 0 250 250" style="enable-background:new 0 0 250 250;" xml:space="preserve">
<style type="text/css">
	.st0{fill:#FFC421;}
	.st1{fill:none;stroke:#CCCCCC;stroke-width:1.5;stroke-linecap:round;stroke-linejoin:round;stroke-miterlimit:10;}
	.st2{fill:#404041;}
	.st3{fill:#FFFFFF;}
	.st4{fill:none;stroke:#CCCCCC;stroke-width:1.5;stroke-miterlimit:10;}
	.st5{clip-path:url(#SVGID_2_);}
	.st6{fill:none;}
	.st7{fill:none;stroke:#FFC421;stroke-width:1.5;stroke-linecap:round;stroke-linejoin:round;stroke-miterlimit:10;}
	.st8{fill:none;stroke:#CCCCCC;stroke-width:0.5232;stroke-miterlimit:10;}
	.st9{fill:none;stroke:#FFFFFF;stroke-width:3.2;stroke-linecap:round;stroke-linejoin:round;stroke-miterlimit:10;}
	.st10{fill:none;stroke:#FFFFFF;stroke-width:3;stroke-linecap:round;stroke-linejoin:round;stroke-miterlimit:10;}
</style>
<rect x="0.3" y="1.1" class="st0" width="251" height="251"/>
<g>
	<g>
		<path class="st3" d="M52.8,126.4v-11.6h3c0.8,0,1.5,0.1,2.1,0.4c0.6,0.3,1.2,0.6,1.6,1.1c0.4,0.5,0.8,1,1,1.7
			c0.2,0.7,0.4,1.4,0.4,2.1v1c0,0.8-0.1,1.5-0.4,2.1c-0.2,0.6-0.6,1.2-1,1.7c-0.4,0.5-1,0.8-1.6,1.1c-0.6,0.3-1.3,0.4-2,0.4H52.8z
			 M55.1,116.6v8h0.9c0.4,0,0.8-0.1,1.1-0.2c0.3-0.2,0.6-0.4,0.8-0.7c0.2-0.3,0.4-0.7,0.5-1.1c0.1-0.4,0.2-0.9,0.2-1.5v-1
			c0-0.5-0.1-1-0.2-1.4c-0.1-0.4-0.3-0.8-0.5-1.1c-0.2-0.3-0.5-0.5-0.9-0.7c-0.3-0.2-0.7-0.3-1.2-0.3H55.1z"/>
	</g>
	<g>
		<path class="st3" d="M63.1,114.8h6.7v1.8h-2.3v8h2.3v1.8h-6.7v-1.8h2.2v-8h-2.2V114.8z"/>
	</g>
	<g>
		<path class="st3" d="M80.4,122.8c0,0.6-0.2,1.1-0.4,1.6c-0.2,0.5-0.5,0.9-0.9,1.2c-0.4,0.3-0.8,0.6-1.3,0.8
			c-0.5,0.2-1,0.3-1.7,0.3c-0.7,0-1.3-0.1-1.8-0.4c-0.5-0.3-1-0.6-1.3-1.1c-0.4-0.5-0.6-1-0.8-1.6c-0.2-0.6-0.3-1.3-0.3-2.1v-1.6
			c0-0.8,0.1-1.5,0.3-2.1c0.2-0.6,0.5-1.2,0.9-1.6c0.4-0.5,0.8-0.8,1.3-1.1c0.5-0.3,1.1-0.4,1.8-0.4c0.6,0,1.2,0.1,1.7,0.3
			c0.5,0.2,0.9,0.4,1.3,0.8c0.4,0.3,0.6,0.7,0.8,1.2c0.2,0.5,0.3,1,0.4,1.6h-2.2c0-0.3-0.1-0.6-0.2-0.9c-0.1-0.3-0.2-0.5-0.4-0.6
			c-0.2-0.2-0.4-0.3-0.6-0.4s-0.5-0.1-0.8-0.1c-0.3,0-0.6,0.1-0.9,0.2s-0.5,0.4-0.6,0.7s-0.3,0.6-0.4,1.1c-0.1,0.4-0.1,0.9-0.1,1.4
			v1.6c0,1.1,0.2,2,0.5,2.5c0.3,0.5,0.8,0.8,1.5,0.8c0.6,0,1-0.2,1.4-0.5c0.3-0.3,0.5-0.8,0.6-1.5H80.4z"/>
	</g>
	<g>
		<path class="st3" d="M90.3,121.5c0,0.7-0.1,1.4-0.3,2.1c-0.2,0.6-0.5,1.2-0.9,1.6c-0.4,0.5-0.8,0.8-1.4,1.1
			c-0.5,0.3-1.1,0.4-1.8,0.4c-0.7,0-1.3-0.1-1.8-0.4c-0.5-0.3-1-0.6-1.3-1.1s-0.6-1-0.8-1.6c-0.2-0.6-0.3-1.3-0.3-2v-1.7
			c0-0.7,0.1-1.4,0.3-2.1c0.2-0.6,0.5-1.2,0.8-1.6c0.4-0.5,0.8-0.8,1.3-1.1c0.5-0.3,1.1-0.4,1.8-0.4c0.7,0,1.3,0.1,1.8,0.4
			c0.5,0.3,1,0.6,1.4,1.1c0.4,0.5,0.7,1,0.9,1.6c0.2,0.6,0.3,1.3,0.3,2.1V121.5z M88,119.8c0-0.5,0-0.9-0.1-1.3
			c-0.1-0.4-0.2-0.7-0.4-1c-0.2-0.3-0.4-0.5-0.6-0.7c-0.3-0.2-0.6-0.2-0.9-0.2c-0.4,0-0.7,0.1-0.9,0.2c-0.2,0.2-0.4,0.4-0.6,0.7
			c-0.1,0.3-0.3,0.6-0.3,1c-0.1,0.4-0.1,0.8-0.1,1.3v1.7c0,0.5,0,0.9,0.1,1.3c0.1,0.4,0.2,0.7,0.3,1c0.1,0.3,0.3,0.5,0.6,0.7
			c0.2,0.2,0.5,0.2,0.9,0.2c0.4,0,0.7-0.1,0.9-0.2c0.3-0.2,0.5-0.4,0.6-0.7c0.2-0.3,0.3-0.6,0.4-1c0.1-0.4,0.1-0.8,0.1-1.3V119.8z"
			/>
	</g>
	<g>
		<path class="st3" d="M94.7,114.8l1.1,4.3l1.2-4.3h2.8v11.6h-2.1V123l0.1-5.4l-1.5,5h-1.1l-1.4-4.8L94,123v3.4h-2.1v-11.6H94.7z"/>
	</g>
</g>
<g>
	<g>
		<path class="st3" d="M166,123.4c0-0.2,0-0.4-0.1-0.6c-0.1-0.2-0.2-0.3-0.4-0.5c-0.2-0.2-0.4-0.3-0.7-0.4c-0.3-0.1-0.6-0.3-1-0.4
			c-0.5-0.1-1-0.3-1.4-0.5c-0.5-0.2-0.9-0.5-1.2-0.7c-0.4-0.3-0.6-0.6-0.8-1c-0.2-0.4-0.3-0.8-0.3-1.3c0-0.5,0.1-0.9,0.3-1.3
			c0.2-0.4,0.5-0.7,0.9-1c0.4-0.3,0.8-0.5,1.3-0.6c0.5-0.2,1-0.2,1.6-0.2c0.6,0,1.2,0.1,1.7,0.3s0.9,0.4,1.3,0.7
			c0.4,0.3,0.6,0.7,0.8,1.1c0.2,0.4,0.3,0.9,0.3,1.4H166c0-0.3-0.1-0.5-0.1-0.7c-0.1-0.2-0.2-0.4-0.4-0.6c-0.2-0.2-0.4-0.3-0.6-0.4
			c-0.2-0.1-0.5-0.1-0.8-0.1c-0.3,0-0.6,0-0.8,0.1c-0.2,0.1-0.4,0.2-0.6,0.3c-0.2,0.1-0.3,0.3-0.4,0.5c-0.1,0.2-0.1,0.4-0.1,0.6
			c0,0.2,0.1,0.4,0.2,0.6c0.1,0.2,0.3,0.3,0.5,0.5c0.2,0.1,0.5,0.3,0.8,0.4c0.3,0.1,0.6,0.2,1,0.3c0.5,0.2,1,0.3,1.5,0.6
			c0.4,0.2,0.8,0.5,1.1,0.8c0.3,0.3,0.6,0.7,0.7,1s0.3,0.8,0.3,1.3c0,0.5-0.1,1-0.3,1.4c-0.2,0.4-0.5,0.7-0.8,1
			c-0.4,0.3-0.8,0.5-1.3,0.6c-0.5,0.1-1,0.2-1.6,0.2c-0.4,0-0.7,0-1.1-0.1c-0.4-0.1-0.7-0.2-1-0.3c-0.3-0.1-0.6-0.3-0.9-0.5
			c-0.3-0.2-0.5-0.4-0.7-0.7c-0.2-0.3-0.4-0.6-0.5-0.9c-0.1-0.4-0.2-0.7-0.2-1.2h2.2c0,0.3,0.1,0.6,0.2,0.9c0.1,0.2,0.3,0.5,0.5,0.6
			c0.2,0.2,0.4,0.3,0.7,0.4c0.3,0.1,0.6,0.1,0.9,0.1c0.3,0,0.6,0,0.8-0.1c0.2-0.1,0.4-0.2,0.6-0.3c0.2-0.1,0.3-0.3,0.4-0.4
			C166,123.8,166,123.6,166,123.4z"/>
	</g>
	<g>
		<path class="st3" d="M178.3,116.6h-3.6v9.8h-2.2v-9.8h-3.5v-1.8h9.3V116.6z"/>
	</g>
	<g>
		<path class="st3" d="M181.9,124.6h5.4v1.8h-7.7v-11.6h2.2V124.6z"/>
	</g>
</g>
<g>
	<path class="st2" d="M65.1,162.5c-0.4,0-0.8-0.3-0.8-0.8v-19.7H44.7c-0.4,0-0.8-0.3-0.8-0.8s0.3-0.8,0.8-0.8h21.2v21.2
		C65.9,162.2,65.6,162.5,65.1,162.5z"/>
</g>
<g>
	<path class="st2" d="M109.3,163.3H64.5l-21.3-21.3V80h66.1V163.3z M65.8,160.3h40.5V83H46.2v57.7L65.8,160.3z"/>
</g>
<g>
	<g>
		<path class="st2" d="M205.2,102.7H184V81.5c0-0.4,0.3-0.8,0.8-0.8s0.8,0.3,0.8,0.8v19.7h19.7c0.4,0,0.8,0.3,0.8,0.8
			S205.6,102.7,205.2,102.7z"/>
	</g>
	<g>
		<path class="st2" d="M206.7,163.3h-66.1V80h44.8l21.3,21.3V163.3z M143.6,160.3h60.1v-57.7L184.1,83h-40.5V160.3z"/>
	</g>
</g>
<g>
	<g>
		<polygon class="st3" points="125,130.4 122.9,128.3 129.6,121.6 122.9,115 125,112.8 133.8,121.6 		"/>
	</g>
	<g>
		<rect x="116.1" y="120.1" class="st3" width="15.6" height="3"/>
	</g>
</g>
</svg>
