<?xml version="1.0" encoding="utf-8"?>
<!-- Generator: Adobe Illustrator 21.1.0, SVG Export Plug-In . SVG Version: 6.00 Build 0)  -->
<svg version="1.1" id="Layer_1" xmlns="http://www.w3.org/2000/svg" xmlns:xlink="http://www.w3.org/1999/xlink" x="0px" y="0px"
	 viewBox="0 0 250 250" style="enable-background:new 0 0 250 250;" xml:space="preserve">
<style type="text/css">
	.st0{fill:none;stroke:#CCCCCC;stroke-width:1.5;stroke-linecap:round;stroke-linejoin:round;stroke-miterlimit:10;}
	.st1{fill:#CCCCCC;}
	.st2{fill:#FFC421;}
	.st3{fill:none;stroke:#CCCCCC;stroke-width:1.5;stroke-miterlimit:10;}
	.st4{clip-path:url(#SVGID_2_);}
	.st5{fill:#FFFFFF;}
	.st6{clip-path:url(#SVGID_4_);}
	.st7{fill:none;stroke:#FFC421;stroke-width:0.75;stroke-linecap:round;stroke-linejoin:round;stroke-miterlimit:10;}
	.st8{fill:none;stroke:#FFC421;stroke-width:1.5;stroke-linecap:round;stroke-linejoin:round;stroke-miterlimit:10;}
	.st9{fill:none;stroke:#CCCCCC;stroke-width:0.5232;stroke-miterlimit:10;}
	.st10{fill:#B2B2B2;}
	.st11{fill:#FFC420;}
	.st12{fill:none;stroke:#FFFFFF;stroke-width:3.2;stroke-linecap:round;stroke-linejoin:round;stroke-miterlimit:10;}
	.st13{fill:none;stroke:#FFFFFF;stroke-width:3;stroke-linecap:round;stroke-linejoin:round;stroke-miterlimit:10;}
</style>
<g>
	<g>
		<path class="st2" d="M238,161.3c-0.6-23.3-18-43.9-44.7-57l-2.5-1.4l-0.1,0.2c-18.1-8.3-40-13.2-63.7-13.2h-1.9v3.7h1.9
			c4.7,0,9.4,0.2,13.9,0.6c-0.1,0-0.2,0-0.2,0c1.4,0.1,14.2,1.2,7.1,22.4l-10.3,30.6c0,0-3.7,14.1-11.8,14.1h-0.6v3.7H238v-0.6v-1.9
			L238,161.3L238,161.3z M150.7,161.3h-6.4c-7.4,0-2.5-13.7-2.5-13.7l9.9-30.3c5.8-18.1,14.9-18.4,18.2-17.9c3.5,1,6.9,2.1,10.2,3.3
			c2.6,1.2,7.3,4.9,2.3,14l-22,37.8C160.4,154.6,156.5,161.3,150.7,161.3z M184.9,156.3l-0.1,0.1c-1,1.1-5,5-9.2,4.9h-4
			c0,0-9.1-0.1-4.1-10l18.7-32c0,0,5.6-11.2,13.1-7.6c4,2.4,7.8,4.9,11.2,7.7c1.4,2,2.9,6.2-2.2,11.8l-23.3,25
			C185,156.1,185,156.2,184.9,156.3z M193.5,161.3h-0.2c-0.5,0-2.4-0.1-3-1.8c-0.3-0.9-0.4-2.1,1.5-4.1l20.2-22.1
			c0,0,5.9-6.7,10.4-2c5.8,7.3,9.7,15.4,11.1,23.9c0.2,2.4-0.4,6.1-6,6.1H193.5z"/>
	</g>
	<g>
		<path class="st2" d="M140.6,94.2c-0.1,0-0.1,0-0.1,0S140.5,94.2,140.6,94.2z"/>
	</g>
</g>
<g>
	<path class="st2" d="M125,186.6c-0.4,0-0.8-0.3-0.8-0.8v-11c0-0.4,0.3-0.8,0.8-0.8s0.8,0.3,0.8,0.8v11
		C125.8,186.2,125.4,186.6,125,186.6z M125,172.6c-0.4,0-0.8-0.3-0.8-0.8v-11c0-0.4,0.3-0.8,0.8-0.8s0.8,0.3,0.8,0.8v11
		C125.8,172.2,125.4,172.6,125,172.6z M125,158.6c-0.4,0-0.8-0.3-0.8-0.8v-11c0-0.4,0.3-0.8,0.8-0.8s0.8,0.3,0.8,0.8v11
		C125.8,158.2,125.4,158.6,125,158.6z M125,144.6c-0.4,0-0.8-0.3-0.8-0.8v-11c0-0.4,0.3-0.8,0.8-0.8s0.8,0.3,0.8,0.8v11
		C125.8,144.2,125.4,144.6,125,144.6z M125,130.6c-0.4,0-0.8-0.3-0.8-0.8v-11c0-0.4,0.3-0.8,0.8-0.8s0.8,0.3,0.8,0.8v11
		C125.8,130.2,125.4,130.6,125,130.6z M125,116.6c-0.4,0-0.8-0.3-0.8-0.8v-11c0-0.4,0.3-0.8,0.8-0.8s0.8,0.3,0.8,0.8v11
		C125.8,116.2,125.4,116.6,125,116.6z M125,102.6c-0.4,0-0.8-0.3-0.8-0.8v-11c0-0.4,0.3-0.8,0.8-0.8s0.8,0.3,0.8,0.8v11
		C125.8,102.2,125.4,102.6,125,102.6z M125,88.6c-0.4,0-0.8-0.3-0.8-0.8v-11c0-0.4,0.3-0.8,0.8-0.8s0.8,0.3,0.8,0.8v11
		C125.8,88.2,125.4,88.6,125,88.6z M125,74.6c-0.4,0-0.8-0.3-0.8-0.8v-8.4c0-0.4,0.3-0.8,0.8-0.8s0.8,0.3,0.8,0.8v8.4
		C125.8,74.2,125.4,74.6,125,74.6z"/>
</g>
<g>
	<path class="st1" d="M124.1,90h-1.9c-23.7,0-45.7,4.9-63.7,13.2l-2.6,1.2c-26.7,13-44.1,33.7-44.7,57h0v1.2v1.9v0.6h112.9v-3.7
		v-7.7c-3.1-0.4-7.4-15.1-7.4-15.1l-10.3-31c-1-2.9,1-5.9,4-6.2c3.6-0.3,4.6-0.5,13.7-0.3v-7.5l0,0h0V90z M53.4,119.3
		c3,4.8,18.5,29.7,19.6,31.9c0,0,1.2,2,0.5,2.5c-0.6,0.3-1.4-0.1-3.3-1.9c-16.5-17.1-22.8-24.4-24.8-26.7c-0.4-0.5-0.3-1.3,0.2-1.7
		c2.1-1.5,4.2-3,6.5-4.4C52.6,118.8,53.2,118.9,53.4,119.3z M43.5,153.9H25.7c-1.2,0-2-1.2-1.7-2.3c1.3-4.4,3.4-8.7,6.3-12.8
		c0.4-0.5,1.1-0.6,1.6-0.1l12.4,13.5C44.8,152.8,44.3,153.9,43.5,153.9z M85.8,107.7c1.1,2.1,2.6,6.1,4.5,12l9.6,29.5
		c0.8,2.9,1.1,4-0.2,4.7c-2.1,1-4.6-3-4.6-3l-22.8-39.6c-0.4-0.7-0.1-1.7,0.7-1.9c2.3-0.8,6.9-2.2,9.9-2.8
		C84.2,106.2,85.3,106.7,85.8,107.7z"/>
</g>
</svg>
