<?xml version="1.0" encoding="utf-8"?>
<!-- Generator: Adobe Illustrator 21.1.0, SVG Export Plug-In . SVG Version: 6.00 Build 0)  -->
<svg version="1.1" id="Layer_1" xmlns="http://www.w3.org/2000/svg" xmlns:xlink="http://www.w3.org/1999/xlink" x="0px" y="0px"
	 viewBox="0 0 250 250" style="enable-background:new 0 0 250 250;" xml:space="preserve">
<style type="text/css">
	.st0{fill:none;stroke:#CCCCCC;stroke-width:1.5;stroke-linecap:round;stroke-linejoin:round;stroke-miterlimit:10;}
	.st1{fill:#CCCCCC;}
	.st2{fill:#FFC421;}
	.st3{fill:none;stroke:#CCCCCC;stroke-width:1.5;stroke-miterlimit:10;}
	.st4{clip-path:url(#SVGID_2_);}
	.st5{fill:#FFFFFF;}
	.st6{clip-path:url(#SVGID_4_);}
	.st7{fill:none;stroke:#FFC421;stroke-width:0.75;stroke-linecap:round;stroke-linejoin:round;stroke-miterlimit:10;}
	.st8{fill:none;stroke:#FFC421;stroke-width:1.5;stroke-linecap:round;stroke-linejoin:round;stroke-miterlimit:10;}
	.st9{fill:none;stroke:#CCCCCC;stroke-width:0.5232;stroke-miterlimit:10;}
	.st10{fill:#B2B2B2;}
	.st11{fill:#FFC420;}
	.st12{fill:none;stroke:#FFFFFF;stroke-width:3.2;stroke-linecap:round;stroke-linejoin:round;stroke-miterlimit:10;}
	.st13{fill:none;stroke:#FFFFFF;stroke-width:3;stroke-linecap:round;stroke-linejoin:round;stroke-miterlimit:10;}
</style>
<g>
	<g>
		<g>
			<path class="st1" d="M122.5,152.8l-11.2-6.5v-13l11.2-6.5l11.2,6.5v13L122.5,152.8z M112.7,145.4l9.7,5.6l9.7-5.6v-11.3l-9.7-5.6
				l-9.7,5.6V145.4z"/>
		</g>
	</g>
	<g>
		<rect x="121.7" y="127.7" class="st1" width="1.5" height="24.2"/>
	</g>
	<g>
		
			<rect x="110.3" y="139" transform="matrix(0.866 -0.5001 0.5001 0.866 -53.4925 79.9713)" class="st1" width="24.2" height="1.5"/>
	</g>
	<g>
		
			<rect x="121.7" y="127.7" transform="matrix(0.5001 -0.866 0.866 0.5001 -59.8339 175.935)" class="st1" width="1.5" height="24.2"/>
	</g>
</g>
<g>
	<path class="st1" d="M141,184.6h-36.5v-76.3H141V184.6z M106,183.1h33.5v-73.3H106V183.1z"/>
</g>
<g>
	<path class="st1" d="M143.8,185.3h-43.2c-0.8,0-1.5-0.7-1.5-1.5s0.7-1.5,1.5-1.5h43.2c0.8,0,1.5,0.7,1.5,1.5
		S144.6,185.3,143.8,185.3z"/>
</g>
<g>
	<path class="st1" d="M144.3,110.5h-43.2c-0.8,0-1.5-0.7-1.5-1.5s0.7-1.5,1.5-1.5h43.2c0.8,0,1.5,0.7,1.5,1.5
		S145.1,110.5,144.3,110.5z"/>
</g>
<g>
	<path class="st1" d="M139.9,110.4c-0.4,0-0.8-0.3-0.8-0.8c0-9.1-7.4-16.4-16.4-16.4c-9.1,0-16.4,7.4-16.4,16.4
		c0,0.4-0.3,0.8-0.8,0.8s-0.8-0.3-0.8-0.8c0-9.9,8-17.9,17.9-17.9c9.9,0,17.9,8,17.9,17.9C140.7,110,140.3,110.4,139.9,110.4z"/>
</g>
<g>
	<path class="st1" d="M128.5,93.6H117V75h11.4V93.6z M120,90.6h5.4V78H120V90.6z"/>
</g>
<g>
	<g>
		<path class="st2" d="M168.8,81.9h-6c-0.8,0-1.5-0.7-1.5-1.5s0.7-1.5,1.5-1.5h6c0.8,0,1.5,0.7,1.5,1.5S169.7,81.9,168.8,81.9z
			 M153.8,81.9h-6c-0.8,0-1.5-0.7-1.5-1.5s0.7-1.5,1.5-1.5h6c0.8,0,1.5,0.7,1.5,1.5S154.7,81.9,153.8,81.9z M138.8,81.9h-6
			c-0.8,0-1.5-0.7-1.5-1.5s0.7-1.5,1.5-1.5h6c0.8,0,1.5,0.7,1.5,1.5S139.7,81.9,138.8,81.9z"/>
	</g>
	<g>
		<path class="st2" d="M132.8,81.9c-0.6,0-1.2-0.4-1.4-1c-0.3-0.8,0.1-1.6,0.9-1.9l5.6-2.2c0.8-0.3,1.6,0.1,1.9,0.9
			c0.3,0.8-0.1,1.6-0.9,1.9l-5.6,2.2C133.2,81.9,133,81.9,132.8,81.9z M146.8,76.6c-0.6,0-1.2-0.4-1.4-1c-0.3-0.8,0.1-1.6,0.9-1.9
			l5.6-2.2c0.8-0.3,1.6,0.1,1.9,0.9c0.3,0.8-0.1,1.6-0.9,1.9l-5.6,2.2C147.2,76.5,147,76.6,146.8,76.6z M160.8,71.2
			c-0.6,0-1.2-0.4-1.4-1c-0.3-0.8,0.1-1.6,0.9-1.9l5.6-2.2c0.8-0.3,1.6,0.1,1.9,0.9c0.3,0.8-0.1,1.6-0.9,1.9l-5.6,2.2
			C161.2,71.2,161,71.2,160.8,71.2z"/>
	</g>
	<g>
		<path class="st2" d="M166.4,95.1c-0.2,0-0.4,0-0.5-0.1l-5.6-2.2c-0.8-0.3-1.2-1.2-0.9-1.9c0.3-0.8,1.2-1.2,1.9-0.9l5.6,2.2
			c0.8,0.3,1.2,1.2,0.9,1.9C167.6,94.7,167,95.1,166.4,95.1z M152.4,89.7c-0.2,0-0.4,0-0.5-0.1l-5.6-2.2c-0.8-0.3-1.2-1.2-0.9-1.9
			s1.2-1.2,1.9-0.9l5.6,2.2c0.8,0.3,1.2,1.2,0.9,1.9C153.6,89.3,153,89.7,152.4,89.7z M138.4,84.3c-0.2,0-0.4,0-0.5-0.1l-5.6-2.2
			c-0.8-0.3-1.2-1.2-0.9-1.9c0.3-0.8,1.2-1.2,1.9-0.9l5.6,2.2c0.8,0.3,1.2,1.2,0.9,1.9C139.6,84,139,84.3,138.4,84.3z"/>
	</g>
</g>
</svg>
