<?xml version="1.0" encoding="utf-8"?>
<!-- Generator: Adobe Illustrator 21.1.0, SVG Export Plug-In . SVG Version: 6.00 Build 0)  -->
<svg version="1.1" id="Layer_1" xmlns="http://www.w3.org/2000/svg" xmlns:xlink="http://www.w3.org/1999/xlink" x="0px" y="0px"
	 viewBox="0 0 250 250" style="enable-background:new 0 0 250 250;" xml:space="preserve">
<style type="text/css">
	.st0{fill:#FFC421;}
	.st1{fill:none;stroke:#CCCCCC;stroke-width:1.5;stroke-linecap:round;stroke-linejoin:round;stroke-miterlimit:10;}
	.st2{fill:#404041;}
	.st3{fill:#FFFFFF;}
	.st4{fill:none;stroke:#CCCCCC;stroke-width:1.5;stroke-miterlimit:10;}
	.st5{clip-path:url(#SVGID_2_);}
	.st6{fill:none;}
	.st7{fill:none;stroke:#FFC421;stroke-width:1.5;stroke-linecap:round;stroke-linejoin:round;stroke-miterlimit:10;}
	.st8{fill:none;stroke:#CCCCCC;stroke-width:0.5232;stroke-miterlimit:10;}
	.st9{fill:none;stroke:#FFFFFF;stroke-width:3.2;stroke-linecap:round;stroke-linejoin:round;stroke-miterlimit:10;}
	.st10{fill:none;stroke:#FFFFFF;stroke-width:3;stroke-linecap:round;stroke-linejoin:round;stroke-miterlimit:10;}
</style>
<rect x="-1" y="-0.3" class="st0" width="251" height="251"/>
<g>
	<g>
		<g>
			<path class="st2" d="M125.4,180.7c-0.1,0-0.3,0-0.4-0.1l-20.5-11.5c-0.2-0.1-0.4-0.4-0.4-0.7v-23c0-0.3,0.1-0.5,0.4-0.7
				l20.5-11.5c0.2-0.1,0.5-0.1,0.7,0l20.5,11.5c0.2,0.1,0.4,0.4,0.4,0.7v23c0,0.3-0.1,0.5-0.4,0.7l-20.5,11.5
				C125.7,180.7,125.6,180.7,125.4,180.7z M105.7,168.1l19.7,11.1l19.7-11.1v-22.1l-19.7-11.1l-19.7,11.1V168.1z M145.9,168.5
				L145.9,168.5L145.9,168.5z"/>
		</g>
	</g>
	<g>
		<g>
			<path class="st2" d="M166.4,180.7c-0.1,0-0.3,0-0.4-0.1l-20.5-11.5c-0.2-0.1-0.4-0.4-0.4-0.7v-23c0-0.3,0.1-0.5,0.4-0.7
				l20.5-11.5c0.2-0.1,0.5-0.1,0.7,0l20.5,11.5c0.2,0.1,0.4,0.4,0.4,0.7v23c0,0.3-0.1,0.5-0.4,0.7l-20.5,11.5
				C166.6,180.7,166.5,180.7,166.4,180.7z M146.7,168.1l19.7,11.1l19.7-11.1v-22.1l-19.7-11.1l-19.7,11.1V168.1z M186.9,168.5
				L186.9,168.5L186.9,168.5z"/>
		</g>
	</g>
	<g>
		<g>
			<path class="st2" d="M105,146.3c-0.1,0-0.3,0-0.4-0.1l-20.5-11.5c-0.2-0.1-0.4-0.4-0.4-0.7v-23c0-0.3,0.1-0.5,0.4-0.7l20.5-11.5
				c0.2-0.1,0.5-0.1,0.7,0l20.5,11.5c0.2,0.1,0.4,0.4,0.4,0.7v23c0,0.3-0.1,0.5-0.4,0.7l-20.5,11.5
				C105.2,146.2,105.1,146.3,105,146.3z M85.2,133.6l19.7,11.1l19.7-11.1v-22.1L105,100.4l-19.7,11.1V133.6z M125.4,134L125.4,134
				L125.4,134z"/>
		</g>
	</g>
	<g>
		<g>
			<path class="st2" d="M145.9,146.3c-0.1,0-0.3,0-0.4-0.1l-20.5-11.5c-0.2-0.1-0.4-0.4-0.4-0.7v-23c0-0.3,0.1-0.5,0.4-0.7
				l20.5-11.5c0.2-0.1,0.5-0.1,0.7,0l20.5,11.5c0.2,0.1,0.4,0.4,0.4,0.7v23c0,0.3-0.1,0.5-0.4,0.7l-20.5,11.5
				C146.2,146.2,146,146.3,145.9,146.3z M126.2,133.6l19.7,11.1l19.7-11.1v-22.1l-19.7-11.1l-19.7,11.1V133.6z M166.4,134L166.4,134
				L166.4,134z"/>
		</g>
	</g>
	<g>
		<g>
			<path class="st2" d="M125.4,111.8c-0.1,0-0.3,0-0.4-0.1l-20.5-11.5c-0.2-0.1-0.4-0.4-0.4-0.7v-23c0-0.3,0.1-0.5,0.4-0.7
				l20.5-11.5c0.2-0.1,0.5-0.1,0.7,0l20.5,11.5c0.2,0.1,0.4,0.4,0.4,0.7v23c0,0.3-0.1,0.5-0.4,0.7l-20.5,11.5
				C125.7,111.8,125.6,111.8,125.4,111.8z M105.7,99.1l19.7,11.1l19.7-11.1V77l-19.7-11.1L105.7,77V99.1z M145.9,99.5L145.9,99.5
				L145.9,99.5z"/>
		</g>
	</g>
	<g>
		<g>
			<path class="st2" d="M84.5,180.7c-0.1,0-0.3,0-0.4-0.1l-20.5-11.5c-0.2-0.1-0.4-0.4-0.4-0.7v-23c0-0.3,0.1-0.5,0.4-0.7l20.5-11.5
				c0.2-0.1,0.5-0.1,0.7,0l20.5,11.5c0.2,0.1,0.4,0.4,0.4,0.7v23c0,0.3-0.1,0.5-0.4,0.7l-20.5,11.5
				C84.7,180.7,84.6,180.7,84.5,180.7z M64.8,168.1l19.7,11.1l19.7-11.1v-22.1l-19.7-11.1l-19.7,11.1V168.1z M105,168.5L105,168.5
				L105,168.5z"/>
		</g>
	</g>
</g>
<g>
	<g>
		<path class="st3" d="M125.4,158.5c-0.3,0-0.5-0.1-0.7-0.2l-20.5-11.5c-0.5-0.3-0.8-0.8-0.8-1.3v-23c0-0.5,0.3-1,0.8-1.3l20.5-11.5
			c0.5-0.3,1-0.3,1.5,0l20.5,11.5c0.5,0.3,0.8,0.8,0.8,1.3v23c0,0.5-0.3,1-0.8,1.3l-20.5,11.5C125.9,158.4,125.7,158.5,125.4,158.5z
			 M106.5,144.6l19,10.7l19-10.7v-21.2l-19-10.7l-19,10.7V144.6z M145.9,145.5L145.9,145.5L145.9,145.5z"/>
	</g>
</g>
<g>
	<path class="st2" d="M125.7,181.4l-20.5-11.5l-20.5,11.5l-22-12.3v-24.7l20.5-11.5v-23l20.5-11.5v-23l22-12.3l22,12.3v23l20.5,11.5
		v23l20.5,11.5v24.7l-22,12.3l-20.5-11.5L125.7,181.4z M105.3,166.5l20.5,11.5l20.5-11.5l20.5,11.5l19-10.7v-21.2l-20.5-11.5v-23
		l-20.5-11.5v-23l-19-10.7l-19,10.7v23l-20.5,11.5v23l-20.5,11.5v21.2l19,10.7L105.3,166.5z M84.8,133.7L84.8,133.7L84.8,133.7z"/>
</g>
</svg>
