<?xml version="1.0" encoding="utf-8"?>
<!-- Generator: Adobe Illustrator 21.1.0, SVG Export Plug-In . SVG Version: 6.00 Build 0)  -->
<svg version="1.1" id="Layer_1" xmlns="http://www.w3.org/2000/svg" xmlns:xlink="http://www.w3.org/1999/xlink" x="0px" y="0px"
	 viewBox="0 0 250 250" style="enable-background:new 0 0 250 250;" xml:space="preserve">
<style type="text/css">
	.st0{fill:none;stroke:#CCCCCC;stroke-width:1.5;stroke-linecap:round;stroke-linejoin:round;stroke-miterlimit:10;}
	.st1{fill:#CCCCCC;}
	.st2{fill:#FFC421;}
	.st3{fill:none;stroke:#CCCCCC;stroke-width:1.5;stroke-miterlimit:10;}
	.st4{clip-path:url(#SVGID_2_);}
	.st5{fill:#FFFFFF;}
	.st6{clip-path:url(#SVGID_4_);}
	.st7{fill:none;stroke:#FFC421;stroke-width:0.75;stroke-linecap:round;stroke-linejoin:round;stroke-miterlimit:10;}
	.st8{fill:none;stroke:#FFC421;stroke-width:1.5;stroke-linecap:round;stroke-linejoin:round;stroke-miterlimit:10;}
	.st9{fill:none;stroke:#CCCCCC;stroke-width:0.5232;stroke-miterlimit:10;}
	.st10{fill:#B2B2B2;}
	.st11{fill:#FFC420;}
	.st12{fill:none;stroke:#FFFFFF;stroke-width:3.2;stroke-linecap:round;stroke-linejoin:round;stroke-miterlimit:10;}
	.st13{fill:none;stroke:#FFFFFF;stroke-width:3;stroke-linecap:round;stroke-linejoin:round;stroke-miterlimit:10;}
</style>
<g>
	<path class="st1" d="M184.5,157.2h-118c-0.8,0-1.5-0.7-1.5-1.5V66.6c0-0.8,0.7-1.5,1.5-1.5h118c0.8,0,1.5,0.7,1.5,1.5v89.1
		C186,156.5,185.4,157.2,184.5,157.2z M68,154.2h115V68.1H68V154.2z"/>
</g>
<g>
	<path class="st1" d="M153.8,186.7c-0.4,0-0.8-0.1-1.1-0.4L125.5,159l-27.2,27.2c-0.6,0.6-1.5,0.6-2.1,0c-0.6-0.6-0.6-1.5,0-2.1
		l28.3-28.3c0.6-0.6,1.5-0.6,2.1,0l28.3,28.3c0.6,0.6,0.6,1.5,0,2.1C154.6,186.6,154.2,186.7,153.8,186.7z"/>
</g>
<g>
	<path class="st1" d="M125.5,155.3c-0.4,0-0.8-0.3-0.8-0.8v-11c0-0.4,0.3-0.8,0.8-0.8s0.8,0.3,0.8,0.8v11
		C126.3,154.9,126,155.3,125.5,155.3z M125.5,141.3c-0.4,0-0.8-0.3-0.8-0.8v-11c0-0.4,0.3-0.8,0.8-0.8s0.8,0.3,0.8,0.8v11
		C126.3,140.9,126,141.3,125.5,141.3z M125.5,127.3c-0.4,0-0.8-0.3-0.8-0.8v-11c0-0.4,0.3-0.8,0.8-0.8s0.8,0.3,0.8,0.8v11
		C126.3,126.9,126,127.3,125.5,127.3z M125.5,113.3c-0.4,0-0.8-0.3-0.8-0.8v-11c0-0.4,0.3-0.8,0.8-0.8s0.8,0.3,0.8,0.8v11
		C126.3,112.9,126,113.3,125.5,113.3z M125.5,99.3c-0.4,0-0.8-0.3-0.8-0.8v-11c0-0.4,0.3-0.8,0.8-0.8s0.8,0.3,0.8,0.8v11
		C126.3,98.9,126,99.3,125.5,99.3z M125.5,85.3c-0.4,0-0.8-0.3-0.8-0.8v-11c0-0.4,0.3-0.8,0.8-0.8s0.8,0.3,0.8,0.8v11
		C126.3,84.9,126,85.3,125.5,85.3z M125.5,71.3c-0.4,0-0.8-0.3-0.8-0.8v-3.9c0-0.4,0.3-0.8,0.8-0.8s0.8,0.3,0.8,0.8v3.9
		C126.3,70.9,126,71.3,125.5,71.3z"/>
</g>
<g>
	<g>
		<path class="st1" d="M183.9,145c-0.1,0-0.3,0-0.4-0.1l-7.2-4.1c-0.4-0.2-0.5-0.7-0.3-1c0.2-0.4,0.7-0.5,1-0.3l7.2,4.1
			c0.4,0.2,0.5,0.7,0.3,1C184.5,144.9,184.2,145,183.9,145z M174.1,139.5c-0.1,0-0.3,0-0.4-0.1l-9.6-5.4c-0.4-0.2-0.5-0.7-0.3-1
			c0.2-0.4,0.7-0.5,1-0.3l9.6,5.4c0.4,0.2,0.5,0.7,0.3,1C174.6,139.3,174.4,139.5,174.1,139.5z M162,132.6c-0.1,0-0.3,0-0.4-0.1
			L152,127c-0.4-0.2-0.5-0.7-0.3-1c0.2-0.4,0.7-0.5,1-0.3l9.6,5.4c0.4,0.2,0.5,0.7,0.3,1C162.5,132.4,162.2,132.6,162,132.6z
			 M149.8,125.6c-0.1,0-0.3,0-0.4-0.1l-9.6-5.4c-0.4-0.2-0.5-0.7-0.3-1c0.2-0.4,0.7-0.5,1-0.3l9.6,5.4c0.4,0.2,0.5,0.7,0.3,1
			C150.3,125.5,150,125.6,149.8,125.6z M137.6,118.7c-0.1,0-0.3,0-0.4-0.1l-9.6-5.4c-0.4-0.2-0.5-0.7-0.3-1c0.2-0.4,0.7-0.5,1-0.3
			l9.6,5.4c0.4,0.2,0.5,0.7,0.3,1C138.1,118.6,137.9,118.7,137.6,118.7z M125.4,111.8c-0.1,0-0.3,0-0.4-0.1l-9.6-5.4
			c-0.4-0.2-0.5-0.7-0.3-1c0.2-0.4,0.7-0.5,1-0.3l9.6,5.4c0.4,0.2,0.5,0.7,0.3,1C125.9,111.7,125.7,111.8,125.4,111.8z M113.2,104.9
			c-0.1,0-0.3,0-0.4-0.1l-9.6-5.4c-0.4-0.2-0.5-0.7-0.3-1c0.2-0.4,0.7-0.5,1-0.3l9.6,5.4c0.4,0.2,0.5,0.7,0.3,1
			C113.8,104.8,113.5,104.9,113.2,104.9z M101.1,98c-0.1,0-0.3,0-0.4-0.1l-9.6-5.4c-0.4-0.2-0.5-0.7-0.3-1c0.2-0.4,0.7-0.5,1-0.3
			l9.6,5.4c0.4,0.2,0.5,0.7,0.3,1C101.6,97.9,101.3,98,101.1,98z M88.9,91.1c-0.1,0-0.3,0-0.4-0.1l-9.6-5.4c-0.4-0.2-0.5-0.7-0.3-1
			c0.2-0.4,0.7-0.5,1-0.3l9.6,5.4c0.4,0.2,0.5,0.7,0.3,1C89.4,91,89.1,91.1,88.9,91.1z M76.7,84.2c-0.1,0-0.3,0-0.4-0.1l-9.6-5.4
			c-0.4-0.2-0.5-0.7-0.3-1c0.2-0.4,0.7-0.5,1-0.3l9.6,5.4c0.4,0.2,0.5,0.7,0.3,1C77.2,84.1,77,84.2,76.7,84.2z"/>
	</g>
	<g>
		<path class="st1" d="M165.9,157.1c-0.1,0-0.3,0-0.4-0.1l-2.5-1.4c-0.4-0.2-0.5-0.7-0.3-1c0.2-0.4,0.7-0.5,1-0.3l2.5,1.4
			c0.4,0.2,0.5,0.7,0.3,1C166.4,156.9,166.1,157.1,165.9,157.1z M160.8,154.2c-0.1,0-0.3,0-0.4-0.1l-9.6-5.4c-0.4-0.2-0.5-0.7-0.3-1
			c0.2-0.4,0.7-0.5,1-0.3l9.6,5.4c0.4,0.2,0.5,0.7,0.3,1C161.3,154,161,154.2,160.8,154.2z M148.6,147.3c-0.1,0-0.3,0-0.4-0.1
			l-9.6-5.4c-0.4-0.2-0.5-0.7-0.3-1c0.2-0.4,0.7-0.5,1-0.3l9.6,5.4c0.4,0.2,0.5,0.7,0.3,1C149.1,147.1,148.9,147.3,148.6,147.3z
			 M136.4,140.4c-0.1,0-0.3,0-0.4-0.1l-9.6-5.4c-0.4-0.2-0.5-0.7-0.3-1c0.2-0.4,0.7-0.5,1-0.3l9.6,5.4c0.4,0.2,0.5,0.7,0.3,1
			C136.9,140.2,136.7,140.4,136.4,140.4z M124.2,133.5c-0.1,0-0.3,0-0.4-0.1l-9.6-5.4c-0.4-0.2-0.5-0.7-0.3-1c0.2-0.4,0.7-0.5,1-0.3
			l9.6,5.4c0.4,0.2,0.5,0.7,0.3,1C124.8,133.3,124.5,133.5,124.2,133.5z M112.1,126.6c-0.1,0-0.3,0-0.4-0.1l-9.6-5.4
			c-0.4-0.2-0.5-0.7-0.3-1c0.2-0.4,0.7-0.5,1-0.3l9.6,5.4c0.4,0.2,0.5,0.7,0.3,1C112.6,126.4,112.3,126.6,112.1,126.6z M99.9,119.7
			c-0.1,0-0.3,0-0.4-0.1l-9.6-5.4c-0.4-0.2-0.5-0.7-0.3-1c0.2-0.4,0.7-0.5,1-0.3l9.6,5.4c0.4,0.2,0.5,0.7,0.3,1
			C100.4,119.5,100.1,119.7,99.9,119.7z M87.7,112.8c-0.1,0-0.3,0-0.4-0.1l-9.6-5.4c-0.4-0.2-0.5-0.7-0.3-1c0.2-0.4,0.7-0.5,1-0.3
			l9.6,5.4c0.4,0.2,0.5,0.7,0.3,1C88.2,112.6,87.9,112.8,87.7,112.8z M75.5,105.9c-0.1,0-0.3,0-0.4-0.1l-9.6-5.4
			c-0.4-0.2-0.5-0.7-0.3-1c0.2-0.4,0.7-0.5,1-0.3l9.6,5.4c0.4,0.2,0.5,0.7,0.3,1C76,105.8,75.8,105.9,75.5,105.9z"/>
	</g>
	<g>
		<path class="st1" d="M185.1,123.3c-0.1,0-0.3,0-0.4-0.1l-2.5-1.4c-0.4-0.2-0.5-0.7-0.3-1c0.2-0.4,0.7-0.5,1-0.3l2.5,1.4
			c0.4,0.2,0.5,0.7,0.3,1C185.7,123.2,185.4,123.3,185.1,123.3z M180,120.5c-0.1,0-0.3,0-0.4-0.1l-9.6-5.4c-0.4-0.2-0.5-0.7-0.3-1
			c0.2-0.4,0.7-0.5,1-0.3l9.6,5.4c0.4,0.2,0.5,0.7,0.3,1C180.6,120.3,180.3,120.5,180,120.5z M167.9,113.6c-0.1,0-0.3,0-0.4-0.1
			l-9.6-5.4c-0.4-0.2-0.5-0.7-0.3-1c0.2-0.4,0.7-0.5,1-0.3l9.6,5.4c0.4,0.2,0.5,0.7,0.3,1C168.4,113.4,168.1,113.6,167.9,113.6z
			 M155.7,106.7c-0.1,0-0.3,0-0.4-0.1l-9.6-5.4c-0.4-0.2-0.5-0.7-0.3-1c0.2-0.4,0.7-0.5,1-0.3l9.6,5.4c0.4,0.2,0.5,0.7,0.3,1
			C156.2,106.5,155.9,106.7,155.7,106.7z M143.5,99.8c-0.1,0-0.3,0-0.4-0.1l-9.6-5.4c-0.4-0.2-0.5-0.7-0.3-1c0.2-0.4,0.7-0.5,1-0.3
			l9.6,5.4c0.4,0.2,0.5,0.7,0.3,1C144,99.6,143.8,99.8,143.5,99.8z M131.3,92.9c-0.1,0-0.3,0-0.4-0.1l-9.6-5.4
			c-0.4-0.2-0.5-0.7-0.3-1c0.2-0.4,0.7-0.5,1-0.3l9.6,5.4c0.4,0.2,0.5,0.7,0.3,1C131.8,92.7,131.6,92.9,131.3,92.9z M119.1,86
			c-0.1,0-0.3,0-0.4-0.1l-9.6-5.4c-0.4-0.2-0.5-0.7-0.3-1c0.2-0.4,0.7-0.5,1-0.3l9.6,5.4c0.4,0.2,0.5,0.7,0.3,1
			C119.7,85.8,119.4,86,119.1,86z M107,79.1c-0.1,0-0.3,0-0.4-0.1L97,73.6c-0.4-0.2-0.5-0.7-0.3-1c0.2-0.4,0.7-0.5,1-0.3l9.6,5.4
			c0.4,0.2,0.5,0.7,0.3,1C107.5,78.9,107.2,79.1,107,79.1z M94.8,72.2c-0.1,0-0.3,0-0.4-0.1l-9.6-5.4c-0.4-0.2-0.5-0.7-0.3-1
			c0.2-0.4,0.7-0.5,1-0.3l9.6,5.4c0.4,0.2,0.5,0.7,0.3,1C95.3,72,95,72.2,94.8,72.2z"/>
	</g>
	<g>
		<path class="st1" d="M66.4,145.9c-0.3,0-0.5-0.1-0.7-0.4c-0.2-0.4-0.1-0.8,0.3-1l9.5-5.5c0.4-0.2,0.8-0.1,1,0.3
			c0.2,0.4,0.1,0.8-0.3,1l-9.5,5.5C66.7,145.9,66.6,145.9,66.4,145.9z M78.6,139c-0.3,0-0.5-0.1-0.7-0.4c-0.2-0.4-0.1-0.8,0.3-1
			l9.5-5.5c0.4-0.2,0.8-0.1,1,0.3c0.2,0.4,0.1,0.8-0.3,1l-9.5,5.5C78.8,138.9,78.7,139,78.6,139z M90.7,132c-0.3,0-0.5-0.1-0.7-0.4
			c-0.2-0.4-0.1-0.8,0.3-1l9.5-5.5c0.4-0.2,0.8-0.1,1,0.3s0.1,0.8-0.3,1l-9.5,5.5C90.9,131.9,90.8,132,90.7,132z M102.8,125
			c-0.3,0-0.5-0.1-0.7-0.4c-0.2-0.4-0.1-0.8,0.3-1l9.5-5.5c0.4-0.2,0.8-0.1,1,0.3c0.2,0.4,0.1,0.8-0.3,1l-9.5,5.5
			C103.1,125,102.9,125,102.8,125z M115,118c-0.3,0-0.5-0.1-0.7-0.4c-0.2-0.4-0.1-0.8,0.3-1l9.5-5.5c0.4-0.2,0.8-0.1,1,0.3
			c0.2,0.4,0.1,0.8-0.3,1l-9.5,5.5C115.2,118,115.1,118,115,118z M127.1,111c-0.3,0-0.5-0.1-0.7-0.4c-0.2-0.4-0.1-0.8,0.3-1l9.5-5.5
			c0.4-0.2,0.8-0.1,1,0.3c0.2,0.4,0.1,0.8-0.3,1l-9.5,5.5C127.3,111,127.2,111,127.1,111z M139.2,104c-0.3,0-0.5-0.1-0.7-0.4
			c-0.2-0.4-0.1-0.8,0.3-1l9.5-5.5c0.4-0.2,0.8-0.1,1,0.3c0.2,0.4,0.1,0.8-0.3,1l-9.5,5.5C139.5,104,139.3,104,139.2,104z M151.4,97
			c-0.3,0-0.5-0.1-0.7-0.4c-0.2-0.4-0.1-0.8,0.3-1l9.5-5.5c0.4-0.2,0.8-0.1,1,0.3c0.2,0.4,0.1,0.8-0.3,1l-9.5,5.5
			C151.6,97,151.5,97,151.4,97z M163.5,90.1c-0.3,0-0.5-0.1-0.7-0.4c-0.2-0.4-0.1-0.8,0.3-1l9.5-5.5c0.4-0.2,0.8-0.1,1,0.3
			c0.2,0.4,0.1,0.8-0.3,1l-9.5,5.5C163.7,90,163.6,90.1,163.5,90.1z M175.6,83.1c-0.3,0-0.5-0.1-0.7-0.4c-0.2-0.4-0.1-0.8,0.3-1
			l9.5-5.5c0.4-0.2,0.8-0.1,1,0.3c0.2,0.4,0.1,0.8-0.3,1L176,83C175.9,83,175.7,83.1,175.6,83.1z"/>
	</g>
	<g>
		<path class="st1" d="M86.4,157.1c-0.3,0-0.5-0.1-0.6-0.4c-0.2-0.4-0.1-0.8,0.3-1l0.7-0.4c0.4-0.2,0.8-0.1,1,0.3
			c0.2,0.4,0.1,0.8-0.3,1l-0.7,0.4C86.7,157,86.5,157.1,86.4,157.1z M89.7,155.2c-0.3,0-0.5-0.1-0.6-0.4c-0.2-0.4-0.1-0.8,0.3-1
			l9.5-5.5c0.4-0.2,0.8-0.1,1,0.3c0.2,0.4,0.1,0.8-0.3,1l-9.5,5.5C89.9,155.1,89.8,155.2,89.7,155.2z M101.8,148.1
			c-0.3,0-0.5-0.1-0.6-0.4c-0.2-0.4-0.1-0.8,0.3-1l9.5-5.5c0.4-0.2,0.8-0.1,1,0.3c0.2,0.4,0.1,0.8-0.3,1l-9.5,5.5
			C102,148.1,101.9,148.1,101.8,148.1z M113.9,141.1c-0.3,0-0.5-0.1-0.6-0.4c-0.2-0.4-0.1-0.8,0.3-1l9.5-5.5c0.4-0.2,0.8-0.1,1,0.3
			c0.2,0.4,0.1,0.8-0.3,1l-9.5,5.5C114.1,141.1,114,141.1,113.9,141.1z M126,134.1c-0.3,0-0.5-0.1-0.6-0.4c-0.2-0.4-0.1-0.8,0.3-1
			l9.5-5.5c0.4-0.2,0.8-0.1,1,0.3c0.2,0.4,0.1,0.8-0.3,1l-9.5,5.5C126.3,134.1,126.1,134.1,126,134.1z M138.1,127.1
			c-0.3,0-0.5-0.1-0.6-0.4c-0.2-0.4-0.1-0.8,0.3-1l9.5-5.5c0.4-0.2,0.8-0.1,1,0.3c0.2,0.4,0.1,0.8-0.3,1l-9.5,5.5
			C138.4,127,138.2,127.1,138.1,127.1z M150.2,120c-0.3,0-0.5-0.1-0.6-0.4c-0.2-0.4-0.1-0.8,0.3-1l9.5-5.5c0.4-0.2,0.8-0.1,1,0.3
			c0.2,0.4,0.1,0.8-0.3,1l-9.5,5.5C150.5,120,150.3,120,150.2,120z M162.3,113c-0.3,0-0.5-0.1-0.6-0.4c-0.2-0.4-0.1-0.8,0.3-1
			l9.5-5.5c0.4-0.2,0.8-0.1,1,0.3c0.2,0.4,0.1,0.8-0.3,1l-9.5,5.5C162.6,113,162.5,113,162.3,113z M174.4,106
			c-0.3,0-0.5-0.1-0.6-0.4c-0.2-0.4-0.1-0.8,0.3-1l9.5-5.5c0.4-0.2,0.8-0.1,1,0.3c0.2,0.4,0.1,0.8-0.3,1l-9.5,5.5
			C174.7,106,174.6,106,174.4,106z"/>
	</g>
	<g>
		<path class="st1" d="M65.9,123.3c-0.3,0-0.5-0.1-0.7-0.4c-0.2-0.4-0.1-0.8,0.3-1l0.1-0.1c0.4-0.2,0.8-0.1,1,0.3
			c0.2,0.4,0.1,0.8-0.3,1l-0.1,0.1C66.2,123.3,66.1,123.3,65.9,123.3z M68.7,121.8c-0.3,0-0.5-0.1-0.7-0.4c-0.2-0.4-0.1-0.8,0.3-1
			l9.6-5.4c0.4-0.2,0.8-0.1,1,0.3c0.2,0.4,0.1,0.8-0.3,1l-9.6,5.4C68.9,121.8,68.8,121.8,68.7,121.8z M80.9,114.9
			c-0.3,0-0.5-0.1-0.7-0.4c-0.2-0.4-0.1-0.8,0.3-1l9.6-5.4c0.4-0.2,0.8-0.1,1,0.3s0.1,0.8-0.3,1l-9.6,5.4
			C81.1,114.8,81,114.9,80.9,114.9z M93,108c-0.3,0-0.5-0.1-0.7-0.4c-0.2-0.4-0.1-0.8,0.3-1l9.6-5.4c0.4-0.2,0.8-0.1,1,0.3
			c0.2,0.4,0.1,0.8-0.3,1l-9.6,5.4C93.3,107.9,93.2,108,93,108z M105.2,101c-0.3,0-0.5-0.1-0.7-0.4c-0.2-0.4-0.1-0.8,0.3-1l9.6-5.4
			c0.4-0.2,0.8-0.1,1,0.3c0.2,0.4,0.1,0.8-0.3,1l-9.6,5.4C105.5,101,105.3,101,105.2,101z M117.4,94.1c-0.3,0-0.5-0.1-0.7-0.4
			c-0.2-0.4-0.1-0.8,0.3-1l9.6-5.4c0.4-0.2,0.8-0.1,1,0.3c0.2,0.4,0.1,0.8-0.3,1l-9.6,5.4C117.6,94.1,117.5,94.1,117.4,94.1z
			 M129.6,87.2c-0.3,0-0.5-0.1-0.7-0.4c-0.2-0.4-0.1-0.8,0.3-1l9.6-5.4c0.4-0.2,0.8-0.1,1,0.3c0.2,0.4,0.1,0.8-0.3,1l-9.6,5.4
			C129.8,87.2,129.7,87.2,129.6,87.2z M141.7,80.3c-0.3,0-0.5-0.1-0.7-0.4c-0.2-0.4-0.1-0.8,0.3-1l9.6-5.4c0.4-0.2,0.8-0.1,1,0.3
			c0.2,0.4,0.1,0.8-0.3,1l-9.6,5.4C142,80.3,141.9,80.3,141.7,80.3z M153.9,73.4c-0.3,0-0.5-0.1-0.7-0.4c-0.2-0.4-0.1-0.8,0.3-1
			l9.6-5.4c0.4-0.2,0.8-0.1,1,0.3c0.2,0.4,0.1,0.8-0.3,1l-9.6,5.4C154.2,73.4,154,73.4,153.9,73.4z"/>
	</g>
</g>
<g>
	<g>
		<path class="st2" d="M125.5,134.9c-0.3,0-0.5-0.1-0.7-0.2L105,123.6c-0.5-0.3-0.8-0.8-0.8-1.3V100c0-0.5,0.3-1,0.8-1.3l19.8-11.1
			c0.5-0.3,1-0.3,1.5,0l19.8,11.1c0.5,0.3,0.8,0.8,0.8,1.3v22.3c0,0.5-0.3,1-0.8,1.3l-19.8,11.1C126,134.9,125.8,134.9,125.5,134.9z
			 M107.2,121.4l18.3,10.3l18.3-10.3v-20.5l-18.3-10.3l-18.3,10.3V121.4z M145.4,122.3L145.4,122.3L145.4,122.3z"/>
	</g>
	<g>
		<path class="st2" d="M125.5,134.9c-0.8,0-1.5-0.7-1.5-1.5v-22.3c0-0.8,0.7-1.5,1.5-1.5s1.5,0.7,1.5,1.5v22.3
			C127,134.3,126.4,134.9,125.5,134.9z"/>
	</g>
	<g>
		<path class="st2" d="M125.5,112.7c-0.2,0-0.5-0.1-0.7-0.2L105,101.3c-0.7-0.4-1-1.3-0.6-2s1.3-1,2-0.6l19.8,11.1
			c0.7,0.4,1,1.3,0.6,2C126.6,112.4,126.1,112.7,125.5,112.7z"/>
	</g>
	<g>
		<path class="st2" d="M125.5,112.7c-0.5,0-1-0.3-1.3-0.8c-0.4-0.7-0.1-1.6,0.6-2l19.8-11.1c0.7-0.4,1.6-0.1,2,0.6
			c0.4,0.7,0.1,1.6-0.6,2l-19.8,11.1C126,112.6,125.8,112.7,125.5,112.7z"/>
	</g>
</g>
</svg>
