<?xml version="1.0" encoding="utf-8"?>
<!-- Generator: Adobe Illustrator 21.1.0, SVG Export Plug-In . SVG Version: 6.00 Build 0)  -->
<svg version="1.1" id="Layer_1" xmlns="http://www.w3.org/2000/svg" xmlns:xlink="http://www.w3.org/1999/xlink" x="0px" y="0px"
	 viewBox="0 0 250 250" style="enable-background:new 0 0 250 250;" xml:space="preserve">
<style type="text/css">
	.st0{fill:#FFC421;}
	.st1{fill:none;stroke:#CCCCCC;stroke-width:1.5;stroke-linecap:round;stroke-linejoin:round;stroke-miterlimit:10;}
	.st2{fill:#404041;}
	.st3{fill:#FFFFFF;}
	.st4{fill:none;stroke:#CCCCCC;stroke-width:1.5;stroke-miterlimit:10;}
	.st5{clip-path:url(#SVGID_2_);}
	.st6{fill:none;}
	.st7{fill:none;stroke:#FFC421;stroke-width:1.5;stroke-linecap:round;stroke-linejoin:round;stroke-miterlimit:10;}
	.st8{fill:none;stroke:#CCCCCC;stroke-width:0.5232;stroke-miterlimit:10;}
	.st9{fill:none;stroke:#FFFFFF;stroke-width:3.2;stroke-linecap:round;stroke-linejoin:round;stroke-miterlimit:10;}
	.st10{fill:none;stroke:#FFFFFF;stroke-width:3;stroke-linecap:round;stroke-linejoin:round;stroke-miterlimit:10;}
</style>
<rect x="0.3" y="-0.3" class="st0" width="251" height="251"/>
<g>
	<path class="st2" d="M124.7,182.7c-0.3,0-0.5-0.1-0.7-0.2l-51.8-29.1c-0.5-0.3-0.8-0.8-0.8-1.3V93.9c0-0.5,0.3-1,0.8-1.3l51.8-29.1
		c0.5-0.3,1-0.3,1.5,0l51.8,29.1c0.5,0.3,0.8,0.8,0.8,1.3v58.2c0,0.5-0.3,1-0.8,1.3l-51.8,29.1C125.2,182.6,124.9,182.7,124.7,182.7
		z M74.3,151.2l50.3,28.3l50.3-28.3V94.7l-50.3-28.3L74.3,94.7V151.2z M176.5,152.1L176.5,152.1L176.5,152.1z"/>
</g>
<g>
	<path class="st3" d="M124.1,163.6c-0.3,0-0.5-0.1-0.7-0.2l-50.9-28.8c-0.5-0.3-0.8-0.8-0.8-1.3c0-0.5,0.3-1,0.7-1.3l51.6-30.5
		c0.5-0.3,1.1-0.3,1.5,0l50.9,29.9c0.5,0.3,0.7,0.8,0.7,1.3c0,0.5-0.3,1-0.8,1.3l-51.6,29.4C124.7,163.6,124.4,163.6,124.1,163.6z
		 M76.2,133.3l47.9,27.1l48.6-27.7l-47.9-28.1L76.2,133.3z"/>
</g>
<g>
	<path class="st3" d="M124.1,144.6c-0.3,0-0.5-0.1-0.7-0.2l-50.9-28.8c-0.5-0.3-0.8-0.8-0.8-1.3c0-0.5,0.3-1,0.7-1.3L124,82.5
		c0.5-0.3,1.1-0.3,1.5,0l50.9,29.9c0.5,0.3,0.7,0.8,0.7,1.3c0,0.5-0.3,1-0.8,1.3l-51.6,29.4C124.7,144.5,124.4,144.6,124.1,144.6z
		 M76.2,114.3l47.9,27.1l48.6-27.7l-47.9-28.1L76.2,114.3z"/>
</g>
<g>
	<path class="st2" d="M124.7,181.9c-0.4,0-0.8-0.3-0.8-0.8V123c0-0.4,0.3-0.8,0.8-0.8s0.8,0.3,0.8,0.8v58.2
		C125.4,181.6,125.1,181.9,124.7,181.9z"/>
</g>
<g>
	<path class="st2" d="M124.7,123.7c-0.1,0-0.3,0-0.4-0.1L72.5,94.5c-0.4-0.2-0.5-0.7-0.3-1c0.2-0.4,0.7-0.5,1-0.3l51.8,29.1
		c0.4,0.2,0.5,0.7,0.3,1C125.2,123.6,124.9,123.7,124.7,123.7z"/>
</g>
<g>
	<path class="st2" d="M124.7,123.7c-0.3,0-0.5-0.1-0.7-0.4c-0.2-0.4-0.1-0.8,0.3-1l51.8-29.1c0.4-0.2,0.8-0.1,1,0.3
		c0.2,0.4,0.1,0.8-0.3,1L125,123.6C124.9,123.7,124.8,123.7,124.7,123.7z"/>
</g>
</svg>
